<svg xmlns="http://www.w3.org/2000/svg"><symbol fill="none" id="sprite-close" viewBox="0 0 18 18"><title>close</title><g clip-path="url(#a)" fill="#292A4A"><path d="m18 17.075-17-17-.85.85 17 17z"/><path d="m.151 17.075 17-17 .85.85-17 17z"/></g><defs><clipPath id="a"><path fill="#fff" d="M0 0h18v18H0z"/></clipPath></defs></symbol><symbol fill="none" id="sprite-drawer-menu" viewBox="0 0 40 11"><title>drawer-menu</title><path fill="#292A4A" d="M0 9h40v2H0zm0-9h20v2H0z"/></symbol><symbol fill="none" id="sprite-info" viewBox="0 0 18 18"><title>info</title><path fill-rule="evenodd" clip-rule="evenodd" d="M9 .75a8.25 8.25 0 1 0 0 16.5A8.25 8.25 0 0 0 9 .75ZM8.625 4.5a.75.75 0 0 0 0 1.5H9a.75.75 0 0 0 0-1.5h-.375ZM7.5 7.5a.75.75 0 0 0 0 1.5h.75v2.25H7.5a.75.75 0 1 0 0 1.5h3a.75.75 0 1 0 0-1.5h-.75v-3A.75.75 0 0 0 9 7.5H7.5Z" fill="#A62974"/></symbol><symbol fill="none" id="sprite-user" viewBox="0 0 20 20"><title>user</title><path d="M10 0C4.478 0 0 4.477 0 10c0 5.522 4.477 10 10 10s10-4.478 10-10c0-5.523-4.477-10-10-10Zm0 2.99a3.308 3.308 0 1 1 0 6.616 3.308 3.308 0 0 1 0-6.616Zm-.002 14.395a7.338 7.338 0 0 1-4.78-1.763 1.41 1.41 0 0 1-.494-1.07c0-1.853 1.5-3.336 3.352-3.336h3.849a3.33 3.33 0 0 1 3.346 3.335 1.405 1.405 0 0 1-.494 1.071 7.336 7.336 0 0 1-4.78 1.763Z" fill="#1B4B5B"/></symbol><symbol fill="none" id="sprite-v" viewBox="0 0 28 28"><title>v</title><path d="m25.2 12.483-1.633-1.866c-.35-.35-.584-1.05-.584-1.517V7.233a2.215 2.215 0 0 0-2.216-2.216h-1.984c-.466 0-1.166-.234-1.516-.584L15.4 2.8c-.817-.7-2.1-.7-2.917 0l-1.75 1.633c-.35.35-1.05.584-1.516.584H7.233a2.215 2.215 0 0 0-2.216 2.216v1.984c0 .466-.234 1.166-.584 1.516L2.917 12.6c-.7.817-.7 2.1 0 2.917l1.516 1.866c.35.35.584 1.05.584 1.517v1.983A2.215 2.215 0 0 0 7.233 23.1h1.984c.466 0 1.166.233 1.516.583l1.867 1.634c.817.7 2.1.7 2.917 0l1.866-1.634c.35-.35 1.05-.583 1.517-.583h1.983a2.215 2.215 0 0 0 2.217-2.217V18.9c0-.467.233-1.167.583-1.517l1.634-1.866c.583-.817.583-2.217-.117-3.034Zm-6.3-.7-5.6 5.6a.89.89 0 0 1-.583.234.89.89 0 0 1-.584-.234l-2.8-2.8a.915.915 0 0 1 0-1.283.916.916 0 0 1 1.284 0l2.216 2.217 4.784-5.017a.915.915 0 0 1 1.283 0c.35.35.35.933 0 1.283Z" fill="#3AAB7C"/></symbol><symbol fill="none" id="sprite-whatsapp" viewBox="0 0 23 23"><title>whatsapp</title><circle cx="11.145" cy="11.556" r="10.654" fill="var(--icon-foreground-color)"/><path d="M11.5 0C5.34 0 .35 4.99.35 11.151c0 2.453.78 4.712 2.118 6.551L.935 21.745l4.432-1.283a11.032 11.032 0 0 0 6.133 1.84c6.161 0 11.151-4.99 11.151-11.15C22.651 4.99 17.661 0 11.501 0Zm5.938 15.779-1.198 1.17c-1.255 1.255-4.572-.11-7.5-3.066-2.927-2.927-4.237-6.244-3.066-7.471l1.199-1.199c.446-.446 1.198-.446 1.672 0l1.757 1.756c.613.614.362 1.673-.447 1.924-.557.195-.947.808-.752 1.366.306 1.31 2.007 2.927 3.261 3.234.558.14 1.2-.195 1.366-.753.251-.808 1.31-1.06 1.924-.446l1.756 1.756c.446.474.446 1.227.028 1.729Z" fill="var(--icon-background-color)"/></symbol></svg>