<svg xmlns="http://www.w3.org/2000/svg"><symbol style="enable-background:new 0 0 128 128" id="sprite-down_arrow" viewBox="0 0 128 128"><title>down_arrow</title><path style="stroke:#909090;stroke-width:12;stroke-linecap:square;stroke-miterlimit:10" d="M111 40.5 64 87.499m0 0L17 40.5"/></symbol><symbol id="sprite-freebsd" viewBox="0 0 636.19 620.87"><title>freebsd</title><path style="stroke-linejoin:round;stroke:#000;stroke-linecap:round;stroke-width:2;fill:#ff1000" d="M988.59 947.1c-.05 41.001-33.329 74.199-74.331 74.149-41.001-.05-74.199-33.329-74.149-74.331.05-41.001 33.329-74.199 74.331-74.149 40.979.05 74.167 33.295 74.149 74.274" transform="translate(-3407.816 -3545.006) scale(4.0752)"/><path style="stroke:#000;stroke-width:2;fill:#ff1000" d="M941.64 889.69c25.533-12.334 81.464-51.976 33.845 28.932-19.446 4.815-32.839-15.02-33.845-29.478m-90.07 17.466c-16.99-28.8-20.93-53.2 27.84-26.2" transform="translate(-3418.941 -3536.11) scale(4.0752)"/></symbol><symbol fill-rule="evenodd" clip-rule="evenodd" id="sprite-heart" viewBox="0 0 24 24"><title>heart</title><path d="M12 21.593C6.37 16.054 1 11.296 1 7.191 1 3.4 4.068 2 6.281 2c1.312 0 4.151.501 5.719 4.457 1.59-3.968 4.464-4.447 5.726-4.447C20.266 2.01 23 3.631 23 7.191c0 4.069-5.136 8.625-11 14.402M17.726 1.01c-2.203 0-4.446 1.042-5.726 3.238C10.715 2.042 8.478 1 6.281 1 3.098 1 0 3.187 0 7.191 0 11.852 5.571 16.62 12 23c6.43-6.38 12-11.148 12-15.809 0-4.011-3.095-6.181-6.274-6.181"/></symbol><symbol style="shape-rendering:geometricPrecision;text-rendering:geometricPrecision;image-rendering:optimizeQuality;fill-rule:evenodd;clip-rule:evenodd" id="sprite-inst" viewBox="0 0 86.02 86.02"><title>inst</title><path class="fil0" d="M43.01 0c11.88 0 22.63 4.81 30.41 12.6 7.78 7.78 12.6 18.54 12.6 30.41 0 11.88-4.81 22.63-12.6 30.41-7.78 7.78-18.54 12.6-30.41 12.6-11.88 0-22.63-4.81-30.41-12.6C4.82 65.64 0 54.88 0 43.01 0 31.13 4.81 20.38 12.6 12.6 20.38 4.82 31.14 0 43.01 0zm28.34 14.67C64.1 7.42 54.08 2.93 43.01 2.93S21.92 7.42 14.67 14.67 2.93 31.94 2.93 43.01 7.42 64.1 14.67 71.35s17.27 11.74 28.34 11.74S64.1 78.6 71.35 71.35s11.74-17.27 11.74-28.34-4.49-21.09-11.74-28.34z"/><path class="fil1" d="M27.49 23.44h31.03c2.16 0 3.93 1.77 3.93 3.93v31.27c0 2.16-1.77 3.93-3.93 3.93H27.49c-2.16 0-3.93-1.77-3.93-3.93V27.37c0-2.16 1.77-3.93 3.93-3.93zm27.28 3.31c2.42 0 4.37 1.96 4.37 4.37 0 2.42-1.96 4.37-4.37 4.37-2.42 0-4.37-1.96-4.37-4.37 0-2.42 1.96-4.37 4.37-4.37zm-12.06 7.74c4.05 0 7.33 3.28 7.33 7.33 0 4.05-3.28 7.33-7.33 7.33-4.05 0-7.33-3.28-7.33-7.33 0-4.05 3.28-7.33 7.33-7.33zm16.2 4.43v17.3c0 1.67-1.37 3.04-3.04 3.04H29.55c-1.67 0-3.04-1.37-3.04-3.04v-17.3h5.16c-.24.93-.37 1.9-.37 2.9 0 6.3 5.11 11.41 11.41 11.41s11.41-5.11 11.41-11.41c0-1-.13-1.97-.37-2.9h5.16z"/></symbol><symbol style="enable-background:new 0 0 469.336 469.336" id="sprite-pencil" viewBox="0 0 469.336 469.336"><title>pencil</title><path d="m456.836 76.168-64-64.054c-16.125-16.139-44.177-16.17-60.365.031L45.763 301.682a10.733 10.733 0 0 0-2.688 4.587L.409 455.73a10.682 10.682 0 0 0 10.261 13.606c.979 0 1.969-.136 2.927-.407l149.333-42.703a10.714 10.714 0 0 0 4.583-2.69l289.323-286.983c8.063-8.069 12.5-18.787 12.5-30.192s-4.437-22.124-12.5-30.193zM285.989 89.737l39.264 39.264-204.996 204.997-14.712-29.434a10.671 10.671 0 0 0-9.542-5.896H78.921L285.989 89.737zm-259.788 353.4L40.095 394.5l34.742 34.742-48.636 13.895zm123.135-35.177-51.035 14.579-51.503-51.503 14.579-51.035h28.031l18.385 36.771a10.671 10.671 0 0 0 4.771 4.771l36.771 18.385v28.032zm21.334-17.543v-17.082c0-4.042-2.281-7.729-5.896-9.542l-29.434-14.712 204.996-204.996 39.264 39.264-208.93 207.068zM441.784 121.72l-47.033 46.613-93.747-93.747 46.582-47.001c8.063-8.063 22.104-8.063 30.167 0l64 64c4.031 4.031 6.25 9.385 6.25 15.083s-2.219 11.052-6.219 15.052z"/></symbol><symbol style="shape-rendering:geometricPrecision;text-rendering:geometricPrecision;image-rendering:optimizeQuality;fill-rule:evenodd;clip-rule:evenodd" id="sprite-phone" viewBox="0 0 70.95 71.01"><title>phone</title><path class="fil0" d="M34.21 35.5z"/><path class="fil1" d="M70.95 58.71c0-.99-.03-1.9-.39-2.83-.59-1.53-1.79-2.53-2.92-3.67l-8.83-8.68c-.8-.74-1.4-1.37-2.51-1.83-4.22-1.75-7.6-.56-10.34 2.7l-1.08 1.46c-1.13 1.78-1.91 3.99-3.97 3.99-3.26 0-8.47-4.28-10.5-5.92-2.71-2.2-4.79-4.77-6.73-7.67-1.14-1.7-3.4-5.45-2.52-7.4.4-.89 1.45-1.4 2.29-1.83.86-.44 1.78-.98 2.5-1.62.78-.7 1.38-1.26 2.06-2.06.99-1.16 1.76-2.58 2.06-4.09.07-.35.23-1.47.18-1.86-.26-2.1-.37-3.59-1.98-5.19-.51-.51-.92-1.08-1.51-1.53l-6.92-6.46c-.23-.23-.34-.3-.58-.51l-1.88-1.66C15.49.29 13.58-.43 10.9.31c-1.21.33-2.43.91-3.33 1.81-.22.22-.32.28-.54.47C5.48 3.96 3.32 6.5 2.24 8.15c-.29.44-.46.83-.74 1.29C.74 10.72.26 12.78.1 14.26c-.27 2.44-.01 5.38.28 7.68.15 1.26.33 2.34.53 3.52.54 3.27 1.65 6.55 2.84 9.53 1.34 3.37 3.01 6.44 4.99 9.41 1.16 1.73 2.26 3.1 3.52 4.73l8.7 8.81c.21.21.36.29.58.51.68.67 1.53 1.27 2.29 1.84.22.17.34.28.57.44.22.15.37.28.58.43 1.41 1.04 2.87 1.95 4.39 2.84 3.39 1.99 7 3.55 10.75 4.74 3.41 1.08 6.6 1.65 10.33 2.05 3.92.42 7.25.46 10.72-1.1 1.61-.72 3-1.72 4.32-2.84.93-.79 1.81-1.66 2.68-2.53 1.12-1.12 1.92-2.24 2.42-3.73.14-.41.35-1.19.35-1.73v-.12zM56.33 46.12c-.4-.38-.89-.9-1.4-1.11-2.62-1.09-4.37-.47-6.16 1.61l-.93 1.25-.3.51c-1.54 2.67-3.15 5.04-6.62 5.04-4.35 0-9.47-4.06-12.76-6.72-2.99-2.42-5.32-5.28-7.45-8.45-1.96-2.92-4.4-7.36-2.81-10.87.81-1.79 2.27-2.7 3.93-3.55.57-.29 1.25-.66 1.73-1.09.62-.55 1.19-1.09 1.72-1.72.59-.69 1.09-1.57 1.27-2.47.05-.26.1-.63.12-.91-.11-1.05-.13-2.11-.92-2.89-.35-.34-.82-.97-1.18-1.24l-.13-.1-7.1-6.63-.05-.05-.01-.01c-.13-.11-.26-.21-.38-.32l-1.92-1.69-.03-.03c-1.03-.96-1.71-1.29-3.09-.91-.58.16-1.31.45-1.74.89-.23.23-.47.42-.71.63-1.38 1.22-3.15 3.3-4.16 4.83-.24.36-.43.79-.66 1.17-.48.8-.81 2.45-.92 3.37-.24 2.16.01 4.7.27 6.85.14 1.13.32 2.25.51 3.37.5 3 1.51 5.98 2.64 8.79 1.23 3.09 2.8 5.98 4.64 8.75 1.01 1.51 2.13 2.92 3.24 4.36l8.5 8.6c.21.18.41.34.61.53.55.54 1.29 1.05 1.91 1.51.14.11.29.24.43.34.24.16.46.34.7.51 1.31.96 2.69 1.82 4.09 2.64 3.16 1.86 6.53 3.3 10.02 4.41 3.18 1.01 6.31 1.55 9.62 1.9 3.06.33 6 .48 8.87-.81 1.28-.57 2.41-1.41 3.47-2.31.86-.73 1.67-1.53 2.46-2.33.71-.71 1.23-1.38 1.55-2.34.06-.19.14-.46.17-.66v-.06c0-.45.01-1.11-.15-1.54-.31-.81-1.49-1.81-2.09-2.4l-8.79-8.65z"/></symbol><symbol style="shape-rendering:geometricPrecision;text-rendering:geometricPrecision;image-rendering:optimizeQuality;fill-rule:evenodd;clip-rule:evenodd" id="sprite-tub" viewBox="0 0 81.57 81.57"><title>tub</title><path class="fil0" d="M40.79 0c11.26 0 21.46 4.57 28.84 11.95 7.38 7.38 11.95 17.58 11.95 28.84 0 11.26-4.57 21.46-11.95 28.84-7.38 7.38-17.58 11.95-28.84 11.95-11.26 0-21.46-4.57-28.84-11.95C4.57 62.25 0 52.05 0 40.79c0-11.26 4.57-21.46 11.95-28.84C19.33 4.57 29.53 0 40.79 0zm26.87 13.91C60.78 7.03 51.28 2.78 40.79 2.78c-10.49 0-20 4.25-26.87 11.13C7.04 20.79 2.79 30.29 2.79 40.78c0 10.49 4.25 20 11.13 26.87 6.88 6.88 16.38 11.13 26.87 11.13 10.49 0 20-4.25 26.87-11.13 6.88-6.88 11.13-16.38 11.13-26.87 0-10.49-4.25-20-11.13-26.87z"/><path class="fil1" d="M35.12 26.47c-2.5.06-9.59-.03-11.58 1.31-.74.5-1.52 1.4-1.92 2.45-1.21 3.25-1.09 12.36-.82 16.18.55 7.62 2.23 8.13 8.68 8.5 6.41.38 18.61.43 25.24-.19 1.37-.13 2.36-.23 3.33-.91.73-.52 1.51-1.41 1.91-2.46 1.22-3.25 1.1-12.35.82-16.15-.2-2.71-.39-5.13-1.89-6.73-1.55-1.65-3.99-1.64-6.79-1.81-5.52-.33-11.43-.35-16.97-.2zm.89 5.79c-1.24.48-.97 1.44-.97 2.88v11.95c0 .75-.13 2.39 1.51 2.33.87-.04 8.32-5.02 9.87-5.95.79-.47 1.76-1.04 2.46-1.52.4-.28.61-.69.52-1.39-.1-.73-.36-.8-.93-1.13l-7.27-4.55c-1.38-.86-4.16-3.01-5.18-2.61z"/></symbol><symbol style="shape-rendering:geometricPrecision;text-rendering:geometricPrecision;image-rendering:optimizeQuality;fill-rule:evenodd;clip-rule:evenodd" id="sprite-user" viewBox="0 0 73.98 90.79"><title>user</title><path class="fil0" d="M25.96 52.89c-2.52 2.08-5.43 3.9-8.68 5.5-3.12 1.53-6.56 2.85-10.27 3.99-1.48 1.01-2.19 3.54-2.5 6.46-.33 3.15-.14 6.68.12 9.53 6.1 4.83 19.02 7.72 32.36 8.09 13.35-.37 26.26-3.26 32.36-8.09.27-2.85.45-6.39.12-9.53-.31-2.92-1.02-5.46-2.5-6.46-3.71-1.14-7.14-2.46-10.27-3.99-3.25-1.59-6.16-3.42-8.68-5.5-1.84-2.28.42-4.48 2.74-3.34 2.26 1.87 4.89 3.51 7.84 4.95 2.99 1.47 6.31 2.73 9.91 3.83l.46.19c3.03 1.76 4.36 5.59 4.8 9.87.4 3.84.12 8.09-.21 11.28l-.72 1.4c-6.52 5.78-20.9 9.26-35.58 9.69v.02l-.28-.01-.28.01v-.02c-14.69-.44-29.06-3.91-35.58-9.69l-.72-1.4c-.33-3.19-.61-7.44-.21-11.28.45-4.28 1.77-8.11 4.8-9.87l.46-.19c3.6-1.09 6.92-2.36 9.91-3.83 2.95-1.44 5.57-3.09 7.84-4.95 2.33-1.15 4.58 1.06 2.74 3.34zm24.07-9.83c3.32-3.59 5.37-9.13 6.04-16.78v-.1c.36-9.08-1.5-15.36-5.03-19.55C47.47 2.38 42.39.19 37.26.01V0h-.56v.01c-5.13.18-10.2 2.37-13.78 6.62-3.52 4.18-5.38 10.47-5.03 19.55v.1c.68 7.65 2.73 13.19 6.04 16.78 3.03 3.28 7.84 4.97 12.76 5.13v.01h.56v-.01c4.92-.15 9.73-1.84 12.76-5.13zM36.99 4.45c4.06.1 8.07 1.77 10.75 4.96 2.82 3.35 4.31 8.64 4.01 16.5-.59 6.66-2.25 11.35-4.91 14.23-2.18 2.36-5.97 3.55-9.85 3.64-3.89-.09-7.68-1.29-9.85-3.64-2.66-2.88-4.32-7.57-4.91-14.23-.29-7.86 1.19-13.15 4.01-16.5 2.69-3.19 6.7-4.85 10.75-4.96z"/></symbol><symbol style="shape-rendering:geometricPrecision;text-rendering:geometricPrecision;image-rendering:optimizeQuality;fill-rule:evenodd;clip-rule:evenodd" id="sprite-vk" viewBox="0 0 103.54 103.54"><title>vk</title><path class="fil0" d="M51.77 0c14.3 0 27.24 5.8 36.61 15.16 9.37 9.37 15.16 22.31 15.16 36.61s-5.8 27.24-15.16 36.61c-9.37 9.37-22.31 15.16-36.61 15.16s-27.24-5.8-36.61-15.16C5.79 79.01 0 66.07 0 51.77s5.8-27.24 15.16-36.61C24.53 5.79 37.47 0 51.77 0zm34.11 17.66C77.15 8.93 65.09 3.53 51.77 3.53s-25.38 5.4-34.11 14.13S3.53 38.45 3.53 51.77s5.4 25.38 14.13 34.11 20.79 14.13 34.11 14.13 25.38-5.4 34.11-14.13 14.13-20.79 14.13-34.11-5.4-25.38-14.13-34.11z"/><path class="fil1" d="M40.09 38.97c1.8 1.21 3.45.01 3.45 6.59 0 .84-.07 1.46-.06 2.26 0 .66-.08 1.58-.18 2.14-.1.6-.26 1.39-.52 1.8-1.09 1.69-2.69-.74-3.2-1.42l-2.32-3.58c-1.39-2.31-1.94-3.67-3.11-6.17-.29-.62-.44-.97-.81-1.51-.39-.56-.71-.68-1.51-.81-1.64-.27-4.42.18-5.93-.03-.69-.09-2.11.01-2.75.22-.35.12-.93.31-.93.64 0 1.67.82 3.31 1.51 4.71 1.18 2.39 2.32 4.79 3.64 7.09 1.3 2.26 2.7 4.46 4.2 6.59.87 1.24 1.83 2.37 2.73 3.54l1.71 1.87c.99.99 1.74 1.69 2.95 2.51 1.9 1.27 4.01 2.2 6.26 2.65 1.71.34 6.55 1.05 8.12-.02.36-.25.55-.44.71-.92.41-1.19.29-3.16.55-4.28.19-.8.67-1.58 1.68-1.58 1.15 0 2.02 1.09 2.59 1.74.68.78 1.07 1.45 1.98 2.35.77.76 1.37 1.41 2.3 2.03.73.49 2.24 1.28 3.11 1.28.43 0 .95-.19 1.69-.19 1.97 0 5.6.41 7.41-.24.49-.18 1.02-.55 1.22-1.04.48-1.15-.51-2.39-1.11-3.24l-1.71-2.18c-.15-.15-.16-.18-.29-.34l-3.22-3.24c-.14-.11-.22-.21-.35-.34-.71-.71-2.15-1.74-2.15-3.06 0-1.49 1.4-2.97 2.08-3.88 2.1-2.81 6.83-8.12 6.83-11.37 0-1.25-1.61-1.27-2.45-1.32-.44-.02-.37-.04-.82 0-.28.02-.65 0-.94 0-.4 0-.54.06-.88.07-2.11.06-4.58-.35-6.17-.08-.64.11-.94.18-1.32.56-.59.6-.98 1.62-1.29 2.41l-.84 1.92c-.12.23-.19.43-.29.65-.94 1.91-1.48 2.9-2.66 4.68-.42.63-1.83 2.6-2.41 3.11-.24.22-.85.61-1.27.61-.42 0-.94-.94-1.1-1.34-.67-1.66-.2-4.67-.15-6.5.02-.81.19-1.68.19-2.64 0-1.12.08-2.1-.4-3.12-.94-2-4.54-1.71-6.82-1.71-1.88 0-5.18-.04-6.51 1.39-.15.16-.4.52-.45.74z"/></symbol></svg>