<svg xmlns="http://www.w3.org/2000/svg"><symbol id="sprite-back" viewBox="0 0 24 24"><path d="M14.5 22a1 1 0 0 1-.71-.29l-9-9a1 1 0 0 1 0-1.42l9-9a1 1 0 1 1 1.42 1.42L6.91 12l8.3 8.29a1 1 0 0 1 0 1.42 1 1 0 0 1-.71.29Z"/></symbol><symbol fill="none" id="sprite-case" viewBox="0 0 91 105"><path d="M17.82 11.274h15.214M17.82 20.526h15.214" stroke="#3AAB7C" stroke-width="2" stroke-miterlimit="10" stroke-linecap="round" stroke-linejoin="round"/><g stroke="#000" stroke-width="1.5" stroke-miterlimit="10" stroke-linecap="round" stroke-linejoin="round"><path d="M63.73 2.006V13.66a6.85 6.85 0 0 0 6.85 6.85h11.654M32.352 52.401l-1.416-3.204A5.369 5.369 0 0 0 26.026 46H6.939a5.368 5.368 0 0 0-5.369 5.368v46.727a5.369 5.369 0 0 0 5.369 5.368H84.06a5.369 5.369 0 0 0 5.369-5.368V60.969A5.368 5.368 0 0 0 84.06 55.6H37.262a5.368 5.368 0 0 1-4.91-3.199Z"/><path d="M82.699 48.407V22.659a5.188 5.188 0 0 0-1.52-3.669L65.248 3.058a5.189 5.189 0 0 0-3.67-1.52H15.147a6.85 6.85 0 0 0-6.85 6.85v30.418"/><path d="M8.299 32.713h-1.36a5.368 5.368 0 0 0-5.369 5.369v13.285m87.857 9.602V38.08a5.368 5.368 0 0 0-5.368-5.368H82.7"/></g></symbol><symbol fill="none" id="sprite-check" viewBox="0 0 8 6"><path d="M7 1 3 5 1 3" stroke="var(--color-icon)" stroke-linecap="round" stroke-linejoin="round"/></symbol><symbol fill="none" id="sprite-close" viewBox="0 0 18 18"><g clip-path="url(#a)" fill="#292A4A"><path d="m18 17.075-17-17-.85.85 17 17z"/><path d="m.151 17.075 17-17 .85.85-17 17z"/></g><defs><clipPath id="a"><path fill="#fff" d="M0 0h18v18H0z"/></clipPath></defs></symbol><symbol fill="none" id="sprite-diagnos" viewBox="0 0 35 35"><path d="M17.5 1A16.5 16.5 0 1 0 34 17.5 16.518 16.518 0 0 0 17.5 1Zm0 28.875A12.375 12.375 0 1 1 29.875 17.5 12.39 12.39 0 0 1 17.5 29.875Z" fill="#292A4A" stroke="#F5F4F9" stroke-width="2"/><path d="M16.874 14.124h-.412a2.168 2.168 0 0 0-2.207 1.916 2.062 2.062 0 0 0 1.87 2.191v6.394a2.062 2.062 0 0 0 4.125 0V17.5a3.375 3.375 0 0 0-3.376-3.376Zm.392-1.483a2.36 2.36 0 1 0 0-4.72 2.36 2.36 0 0 0 0 4.72Z" fill="#3AAB7C" stroke="#F5F4F9" stroke-width="2"/></symbol><symbol fill="none" id="sprite-drawer-menu" viewBox="0 0 40 11"><path fill="#292A4A" d="M0 9h40v2H0zm0-9h20v2H0z"/></symbol><symbol fill="none" id="sprite-dropdown" viewBox="0 0 7 4"><path d="M6 3.111 3.5.89 6 3.11ZM3.5.89 1 3.11 3.5.89Z" fill="#3AAB7C"/><path d="M6 3.111 3.5.89 1 3.11" stroke="#3AAB7C" stroke-linecap="round" stroke-linejoin="round"/></symbol><symbol fill="none" id="sprite-eye" viewBox="0 0 12 10"><g fill-rule="evenodd" clip-rule="evenodd" fill="#000"><path d="M6 2.907a2.093 2.093 0 1 0 0 4.186 2.093 2.093 0 0 0 0-4.186ZM4.742 5a1.256 1.256 0 1 1 2.512 0 1.256 1.256 0 0 1-2.512 0Z"/><path d="M6 .116c-2.52 0-4.217 1.51-5.202 2.79l-.017.022c-.223.29-.428.556-.567.87C.064 4.138 0 4.505 0 5s.065.864.214 1.201c.14.315.344.582.567.87l.018.024C1.783 8.375 3.48 9.884 6 9.884c2.52 0 4.217-1.51 5.202-2.79l.017-.022c.223-.29.428-.556.567-.87.15-.338.214-.706.214-1.202s-.065-.863-.214-1.201c-.14-.315-.344-.581-.567-.87l-.018-.024C10.217 1.625 8.52.116 6 .116Zm-4.538 3.3C2.371 2.234 3.852.954 6 .954c2.149 0 3.628 1.28 4.538 2.462.245.318.388.508.482.721.089.2.143.444.143.863 0 .42-.054.663-.143.863-.094.213-.237.403-.482.721C9.628 7.766 8.148 9.047 6 9.047c-2.149 0-3.628-1.281-4.538-2.463-.245-.318-.388-.508-.482-.721C.89 5.663.837 5.419.837 5c0-.42.054-.663.143-.863.094-.213.238-.403.482-.72Z"/></g></symbol><symbol fill="none" id="sprite-info" viewBox="0 0 18 18"><path fill-rule="evenodd" clip-rule="evenodd" d="M9 .75a8.25 8.25 0 1 0 0 16.5A8.25 8.25 0 0 0 9 .75ZM8.625 4.5a.75.75 0 0 0 0 1.5H9a.75.75 0 0 0 0-1.5h-.375ZM7.5 7.5a.75.75 0 0 0 0 1.5h.75v2.25H7.5a.75.75 0 1 0 0 1.5h3a.75.75 0 1 0 0-1.5h-.75v-3A.75.75 0 0 0 9 7.5H7.5Z" fill="var(--color-icon)"/></symbol><symbol fill="none" id="sprite-label-oms" viewBox="0 0 41 41"><circle cx="20.5" cy="20.5" r="20.5" fill="#DD536C"/><path d="M14.85 31.805c-.568 0-1.06-.123-1.473-.371a2.492 2.492 0 0 1-.953-1.04c-.22-.445-.331-.962-.331-1.552 0-.59.11-1.108.332-1.554a2.48 2.48 0 0 1 .952-1.039c.413-.248.905-.371 1.474-.371s1.059.123 1.47.371c.414.248.731.594.952 1.04.224.445.336.962.336 1.552 0 .59-.112 1.108-.336 1.553a2.458 2.458 0 0 1-.952 1.04c-.411.247-.901.371-1.47.371Zm0-1.011c.362.005.662-.073.902-.233.24-.161.419-.39.537-.684.122-.295.182-.64.182-1.035 0-.396-.06-.738-.182-1.028a1.451 1.451 0 0 0-.537-.676c-.24-.16-.54-.244-.901-.249-.361-.005-.661.073-.901.233-.24.161-.42.389-.541.684-.119.295-.178.64-.178 1.035 0 .396.059.738.178 1.028.12.29.301.515.54.676.24.16.541.243.902.249Zm3.39.893v-5.69h.964l1.881 3.777 1.881-3.778h.965v5.69h-1.004v-3.398l-1.652 3.399h-.38l-1.651-3.399v3.399H18.24Zm9.084.118c-.569 0-1.06-.123-1.474-.371a2.492 2.492 0 0 1-.952-1.04c-.222-.445-.332-.962-.332-1.552 0-.59.11-1.108.332-1.554.224-.445.541-.791.952-1.039.414-.248.905-.371 1.474-.371.653 0 1.201.162 1.644.486.445.324.759.762.94 1.316l-1.082.3c-.106-.345-.283-.613-.534-.802-.25-.193-.573-.289-.968-.289-.36 0-.662.08-.905.241-.24.161-.42.388-.541.68a2.683 2.683 0 0 0-.182 1.032c0 .395.06.739.182 1.03.121.293.301.52.541.68.243.161.544.242.905.242.395 0 .718-.096.968-.289.25-.192.428-.46.534-.802l1.083.3a2.573 2.573 0 0 1-.94 1.316c-.444.324-.992.486-1.645.486Z" fill="#fff"/><g clip-path="url(#a)" fill="#fff"><path d="M18.772 15.468a1.46 1.46 0 0 0 .553-.25c.517-.374.747-.988.512-1.373-.255-.418-.953-.39-1.488.086-.513.443-.622.905-.622 1.391 0 .344.11.957.78 1.49a3.862 3.862 0 0 1 1.123-.593l.006-.002c-.33-.137-.759-.408-.864-.749Zm-.083-1.182c0-.143.115-.259.256-.259.14 0 .255.116.255.26a.257.257 0 0 1-.255.259.257.257 0 0 1-.256-.26Zm6.074 1.037c-.002-.487-.11-.95-.623-1.392-.536-.475-1.234-.504-1.49-.086-.233.385-.004.999.513 1.373.18.13.37.213.553.25-.064.205-.256.414-.55.59-.404.24-.622.27-3.207 1.129-.957.325-1.526.97-1.526 1.727 0 .54.276.955.658 1.26a3.19 3.19 0 0 1 .893-.635c-.405-.205-.53-.36-.53-.625 0-.437.876-.688 1.28-.82V19.2l1.021-.456v-.651c.405.134 1.277.384 1.277.82 0 .727-2.08 1.156-2.966 1.766-.43.298-.661.677-.661 1.122 0 .256.03.572.478.887.128.102.304-.047.222-.19-.297-.593.018-.89.63-1.146v.858a.511.511 0 0 0 1.021 0v-.857c.587.246.957.594.628 1.146-.081.14.092.292.22.19.435-.33.47-.612.47-.881 0-.415-.227-.817-.658-1.125.87-.314 1.64-.843 1.64-1.769 0-.639-.407-1.199-1.109-1.553a3.57 3.57 0 0 0 .713-.328c.96-.574 1.103-1.319 1.103-1.711Zm-1.22-.777a.257.257 0 0 1-.255-.26c0-.143.115-.26.256-.26.14 0 .255.117.255.26 0 .144-.114.26-.255.26Z"/><path d="M28.395 8.927h-3.5c-.686 0-1.201.303-1.645.746-.481.482-.732 1.552-1.498 1.552V9.806a1.018 1.018 0 0 0-.511-1.902 1.018 1.018 0 0 0-.511 1.902v6.09l1.022-.327v-2.56c.221-.11.4-.291.51-.514.178.304.516.52.892.52.382 0 .712-.212.887-.523.598.599 1.711.61 2.31.012l-.869-.869.399.165a1.533 1.533 0 0 0 2.003-.83l-1.234-.51c1.195 0 1.745-.75 1.745-1.533Zm-9.164.746c-.443-.443-.958-.746-1.645-.746h-3.5c0 .783.55 1.533 1.745 1.533l-1.233.51a1.533 1.533 0 0 0 2.003.83l.398-.165-.868.869c.599.598 1.711.587 2.31-.012.175.31.504.523.886.523h.012c.499-.006.88-.457.88-.956V11.03c-.402-.33-.633-1.003-.988-1.358Z"/></g><defs><clipPath id="a"><path fill="#fff" transform="translate(13.831 7.904)" d="M0 0h14.819v14.819H0z"/></clipPath></defs></symbol><symbol fill="none" id="sprite-label-vzn" viewBox="0 0 41 41"><circle cx="20.5" cy="20.5" r="20.5" fill="#7482CC"/><path d="M8.939 28.193v-4.521l-1.067.656v-1.186l1.067-.64h1.098v5.69H8.94Zm4.758 0v-.885h-2.473v-1.004l1.794-3.802h1.233l-1.794 3.802h1.24V24.88h1.091v1.423h.506v1.004h-.506v.885h-1.09Zm3.813 0v-5.69h2.277c.405 0 .733.08.984.244.25.161.433.364.549.609.116.245.174.492.174.743 0 .319-.073.583-.218.794-.142.21-.338.352-.588.423v-.198c.355.074.621.239.798.494.179.256.269.542.269.858 0 .34-.064.639-.19.897a1.379 1.379 0 0 1-.57.608c-.255.145-.576.218-.963.218H17.51Zm1.091-1.012h1.32c.145 0 .274-.03.387-.09a.681.681 0 0 0 .265-.262.78.78 0 0 0 .099-.399.76.76 0 0 0-.083-.36.592.592 0 0 0-.253-.248.826.826 0 0 0-.415-.095h-1.32v1.454Zm0-2.458h1.17c.121 0 .229-.02.324-.063a.504.504 0 0 0 .225-.194.645.645 0 0 0 .083-.344.627.627 0 0 0-.162-.438c-.108-.119-.265-.178-.47-.178H18.6v1.217Zm5.862 3.588a2.93 2.93 0 0 1-1.063-.177 2.535 2.535 0 0 1-.766-.455 2.388 2.388 0 0 1-.486-.585l.909-.632c.063.132.152.262.268.391.116.13.27.236.463.32.192.085.433.127.723.127.274 0 .494-.04.66-.119a.801.801 0 0 0 .363-.304.733.733 0 0 0 .115-.391c0-.182-.054-.322-.162-.42a.862.862 0 0 0-.411-.2 2.651 2.651 0 0 0-.534-.068 121.337 121.337 0 0 1-.557-.016h-.075v-1.011h.356a8.34 8.34 0 0 0 .174-.008c.276-.014.507-.074.691-.182a.543.543 0 0 0 .28-.506.594.594 0 0 0-.248-.502c-.163-.124-.384-.186-.66-.186a1.43 1.43 0 0 0-.7.17 1.29 1.29 0 0 0-.446.368l-.735-.79c.197-.206.462-.383.794-.53a2.726 2.726 0 0 1 1.119-.221c.25 0 .495.033.735.099.24.063.455.162.648.296a1.45 1.45 0 0 1 .632 1.257c0 .245-.044.476-.13.695a1.455 1.455 0 0 1-.376.545c.237.106.42.259.55.459.128.2.193.45.193.75 0 .377-.105.703-.316.977-.208.271-.489.48-.842.628-.35.148-.739.221-1.166.221Zm3.035-.118v-5.69h1.075v2.339h2.545v-2.34h1.075v5.69h-1.075v-2.346h-2.545v2.347h-1.075Z" fill="#fff"/><path fill-rule="evenodd" clip-rule="evenodd" d="M26.732 9.935a.9.9 0 0 1 0 1.274l-6.749 6.75a.96.96 0 0 1-1.359 0l-3.353-3.354a.902.902 0 1 1 1.273-1.273l2.76 2.76 6.155-6.157a.902.902 0 0 1 1.273 0Z" fill="#fff"/></symbol><symbol fill="none" id="sprite-opinion" viewBox="0 0 82 81"><path d="M41.003 77.233 30.136 66.367h-11.4a15.933 15.933 0 0 1-15.9-15.9v-31.8a15.933 15.933 0 0 1 15.9-15.934h44.533a15.933 15.933 0 0 1 15.9 15.934v31.8a15.933 15.933 0 0 1-15.9 15.9h-11.4L41.003 77.233ZM18.736 9.1a9.6 9.6 0 0 0-9.567 9.567v31.8a9.6 9.6 0 0 0 9.567 9.566h14.033l8.234 8.2 8.233-8.2h14.033a9.6 9.6 0 0 0 9.567-9.566v-31.8A9.6 9.6 0 0 0 63.269 9.1H18.736Z" fill="#292A4A" stroke="#fff" stroke-width="4"/><path d="M34.637 44.1H47.37v6.367H34.637V44.1Z" fill="#292A4A" stroke="#fff" stroke-width="4"/><path d="M44.17 47.3h-6.333V31.367h-3.2v-6.334h9.533V47.3Zm-6.333-31.833h6.366v6.367h-6.366v-6.367Z" fill="#3AAB7C" stroke="#fff" stroke-width="4"/></symbol><symbol fill="none" id="sprite-research" viewBox="0 0 52 61"><path fill="#F5F5F5" d="M0 0h52v61H0z"/><g clip-path="url(#a)"><path fill="#fff" d="M-350-676h1900v2548H-350z"/><path stroke="#EAEEF3" d="M-63.5-31.5h1327v236h-1327z"/><g stroke="#fff" stroke-width="2"><path d="M26 17.135H12.538a1.923 1.923 0 1 1 0-3.847H26a1.923 1.923 0 0 1 0 3.847Zm5.77 9.615H12.537a1.923 1.923 0 1 1 0-3.846H31.77a1.923 1.923 0 1 1 0 3.846Zm-7.962 7.692h-11.27a1.923 1.923 0 1 1 0-3.846h11.27a1.923 1.923 0 0 1 0 3.846Zm-4.616 7.693h-6.654a1.923 1.923 0 1 1 0-3.846h6.654a1.923 1.923 0 0 1 0 3.846Z" fill="#000"/><path d="M19.192 53.673h-8.577C5.313 53.673 1 49.36 1 44.058V11.365C1 6.063 5.313 1.75 10.615 1.75h23.077c5.302 0 9.616 4.313 9.616 9.615v15.77a1.923 1.923 0 1 1-3.846 0v-15.77a5.777 5.777 0 0 0-5.77-5.769H10.615a5.776 5.776 0 0 0-5.769 5.77v32.692a5.777 5.777 0 0 0 5.77 5.769h8.576a1.923 1.923 0 1 1 0 3.846Z" fill="#000"/><path d="M37.538 59.442c-7.421 0-13.462-6.038-13.462-13.461s6.04-13.462 13.462-13.462c7.42 0 13.461 6.039 13.461 13.462s-6.04 13.461-13.461 13.461Zm0-23.077c-5.302 0-9.616 4.314-9.616 9.616s4.314 9.615 9.616 9.615 9.615-4.313 9.615-9.615c0-5.302-4.313-9.616-9.615-9.616Z" fill="#3AAB7C"/><path d="M36.256 50.852a1.916 1.916 0 0 1-1.36-.564l-2.563-2.563a1.923 1.923 0 0 1 2.719-2.72l1.204 1.204 3.769-3.767a1.923 1.923 0 0 1 2.72 2.72l-5.13 5.128a1.918 1.918 0 0 1-1.36.562Z" fill="#3AAB7C"/></g></g><defs><clipPath id="a"><path fill="#fff" transform="translate(-350 -676)" d="M0 0h1900v2548H0z"/></clipPath></defs></symbol><symbol fill="none" id="sprite-user" viewBox="0 0 20 20"><path d="M10 0C4.478 0 0 4.477 0 10c0 5.522 4.477 10 10 10s10-4.478 10-10c0-5.523-4.477-10-10-10Zm0 2.99a3.308 3.308 0 1 1 0 6.616 3.308 3.308 0 0 1 0-6.616Zm-.002 14.395a7.338 7.338 0 0 1-4.78-1.763 1.41 1.41 0 0 1-.494-1.07c0-1.853 1.5-3.336 3.352-3.336h3.849a3.33 3.33 0 0 1 3.346 3.335 1.405 1.405 0 0 1-.494 1.071 7.336 7.336 0 0 1-4.78 1.763Z" fill="#1B4B5B"/></symbol><symbol fill="none" id="sprite-v" viewBox="0 0 28 28"><path d="m25.2 12.483-1.633-1.866c-.35-.35-.584-1.05-.584-1.517V7.233a2.215 2.215 0 0 0-2.216-2.216h-1.984c-.466 0-1.166-.234-1.516-.584L15.4 2.8c-.817-.7-2.1-.7-2.917 0l-1.75 1.633c-.35.35-1.05.584-1.516.584H7.233a2.215 2.215 0 0 0-2.216 2.216v1.984c0 .466-.234 1.166-.584 1.516L2.917 12.6c-.7.817-.7 2.1 0 2.917l1.516 1.866c.35.35.584 1.05.584 1.517v1.983A2.215 2.215 0 0 0 7.233 23.1h1.984c.466 0 1.166.233 1.516.583l1.867 1.634c.817.7 2.1.7 2.917 0l1.866-1.634c.35-.35 1.05-.583 1.517-.583h1.983a2.215 2.215 0 0 0 2.217-2.217V18.9c0-.467.233-1.167.583-1.517l1.634-1.866c.583-.817.583-2.217-.117-3.034Zm-6.3-.7-5.6 5.6a.89.89 0 0 1-.583.234.89.89 0 0 1-.584-.234l-2.8-2.8a.915.915 0 0 1 0-1.283.916.916 0 0 1 1.284 0l2.216 2.217 4.784-5.017a.915.915 0 0 1 1.283 0c.35.35.35.933 0 1.283Z" fill="#3AAB7C"/></symbol><symbol fill="none" id="sprite-whatsapp" viewBox="0 0 23 23"><circle cx="11.145" cy="11.556" r="10.654" fill="var(--icon-foreground-color)"/><path d="M11.5 0C5.34 0 .35 4.99.35 11.151c0 2.453.78 4.712 2.118 6.551L.935 21.745l4.432-1.283a11.032 11.032 0 0 0 6.133 1.84c6.161 0 11.151-4.99 11.151-11.15C22.651 4.99 17.661 0 11.501 0Zm5.938 15.779-1.198 1.17c-1.255 1.255-4.572-.11-7.5-3.066-2.927-2.927-4.237-6.244-3.066-7.471l1.199-1.199c.446-.446 1.198-.446 1.672 0l1.757 1.756c.613.614.362 1.673-.447 1.924-.557.195-.947.808-.752 1.366.306 1.31 2.007 2.927 3.261 3.234.558.14 1.2-.195 1.366-.753.251-.808 1.31-1.06 1.924-.446l1.756 1.756c.446.474.446 1.227.028 1.729Z" fill="var(--icon-background-color)"/></symbol></svg>