<?xml version="1.0" encoding="UTF-8"?>
<!DOCTYPE svg PUBLIC "-//W3C//DTD SVG 1.1//EN" "http://www.w3.org/Graphics/SVG/1.1/DTD/svg11.dtd">
<!-- Creator: CorelDRAW 2020 (64-Bit) -->
<svg xmlns="http://www.w3.org/2000/svg" xml:space="preserve" width="67" height="27" version="1.1" style="shape-rendering:geometricPrecision; text-rendering:geometricPrecision; image-rendering:optimizeQuality; fill-rule:evenodd; clip-rule:evenodd"
viewBox="0 0 127.65 52.33"
 xmlns:xlink="http://www.w3.org/1999/xlink"
 xmlns:xodm="http://www.corel.com/coreldraw/odm/2003">
 <defs>
  <style type="text/css">
   <![CDATA[
    .fil0 {fill:#7f7f7f}
   ]]>
  </style>
 </defs>
 <g id="Layer_x0020_1">
  <metadata id="CorelCorpID_0Corel-Layer"/>
  <path class="fil0" d="M101.45 52.33c-0.83,0 -1.56,-0.41 -2.02,-0.81 -0.53,-0.45 -0.83,-1.19 -0.93,-1.91 -0.23,-1.66 1.14,-2.64 2.02,-3.52 0.95,-0.95 16.69,-16.59 17.01,-17.05l-85.01 0c-2.04,0 -4.08,-0.01 -6.12,0 -1.22,0 -1.61,-0.16 -2.3,-0.71 -1.81,-1.46 -1.04,-5.06 2.02,-5.13 2.01,-0.05 4.1,0 6.12,0l85.19 0c-0.31,-0.47 -15.85,-15.9 -16.82,-16.87 -0.84,-0.84 -2.17,-1.82 -2.13,-3.39 0.02,-0.81 0.36,-1.52 0.81,-2 0.93,-1.01 2.46,-1.23 3.63,-0.57 0.93,0.53 19.68,19.62 22.85,22.8 0.86,0.87 1.89,1.39 1.89,3.13 0,0.39 -0.22,0.93 -0.37,1.19 -0.43,0.75 -1.72,1.86 -2.4,2.53l-13.06 13.06c-0.28,0.28 -0.56,0.53 -0.82,0.82 -1.76,2 -3.77,3.86 -5.66,5.75 -1.22,1.22 -2.28,2.67 -3.9,2.67zm-98.25 -23.28c-1.28,0 -2.29,-0.38 -2.86,-1.52 -0.62,-1.22 -0.37,-2.74 0.56,-3.52 0.26,-0.21 0.53,-0.4 0.84,-0.53 2.6,-1.16 5.47,1.92 3.34,4.62 -0.31,0.4 -1.21,0.95 -1.88,0.95zm11.6 0l-0.64 0c-1.17,0 -2.56,-1.39 -2.56,-2.56 0,-0.96 0.07,-1.73 0.89,-2.49 2.54,-2.35 6.63,1 4.19,4.1 -0.31,0.4 -1.21,0.95 -1.88,0.95z"/>
 </g>
</svg>
