<?xml version="1.0" encoding="UTF-8"?>
<!DOCTYPE svg PUBLIC "-//W3C//DTD SVG 1.1//EN" "http://www.w3.org/Graphics/SVG/1.1/DTD/svg11.dtd">
<!-- Creator: CorelDRAW 2020 (64-Bit) -->
<svg xmlns="http://www.w3.org/2000/svg" xml:space="preserve" width="45.7684mm" height="39.5668mm" version="1.1" style="shape-rendering:geometricPrecision; text-rendering:geometricPrecision; image-rendering:optimizeQuality; fill-rule:evenodd; clip-rule:evenodd"
viewBox="0 0 138.58 119.81"
 xmlns:xlink="http://www.w3.org/1999/xlink"
 xmlns:xodm="http://www.corel.com/coreldraw/odm/2003">
 <defs>
  <style type="text/css">
   <![CDATA[
    .fil0 {fill:#a5a7a9}
   ]]>
  </style>
 </defs>
 <g id="Layer_x0020_1">
  <metadata id="CorelCorpID_0Corel-Layer"/>
  <path class="fil0" d="M126.53 32.18c1.64,1.45 5.71,12.9 4.95,16.09l0.2 0.41c0.58,1.77 -0.23,-1.45 0.13,0.45l0.08 2.6c0.08,5.93 -1.89,16.22 -4.96,19.85 -0.64,1.55 -2.48,3.43 -2.49,5.19 -0.01,2.56 1.78,3.03 3.95,3.45 2.19,-1.73 0.28,0.86 3.47,-3.67 0.79,-1.12 1.79,-3.27 2.43,-4.64 3.31,-7.08 4.87,-15.62 4.13,-23.64 -0.2,-2.18 -0.45,-4.18 -0.87,-6.18 -0.33,-1.56 -1.49,-4.68 -1.43,-5.87 -0.66,-0.57 -1.38,-2.8 -1.76,-3.75 -0.58,-1.47 -1.28,-2.31 -1.73,-3.68 -0.58,-0.35 -1.2,-1.68 -1.6,-2.35 -0.91,-1.51 -0.86,-1.06 -2.08,-1.86 -2.42,-0.24 -4.02,0.66 -4.33,2.73 -0.28,1.89 1.34,3.33 1.92,4.86zm-46.37 -16.12c-1.47,0.85 -6.8,3.91 -8.14,4.01 -0.53,0.6 -0.93,0.72 -1.66,1.03l-5.06 2.18c-4.8,1.23 -9.98,3.62 -15.22,4.51 -2.01,-3.51 -5.21,-3.22 -10.07,-3.22 -3.95,0 -24.09,-0.49 -26.33,0.59 -3.85,1.86 -3.91,4.49 -3.91,9.7 -11.26,0.05 -9.73,7.45 -9.64,16.1 0.08,7.81 -1.34,12.66 4.09,15.47 2.07,1.07 3.02,0.9 5.55,0.95 -0.49,6.05 1.65,9.62 7.59,9.62l7.24 30.32c1.57,6.19 1.8,9.27 7.08,11.65 2.19,0.99 10.14,0.92 13.17,0.66 1.83,-0.16 2.33,-0.56 3.77,-1.14 0.47,-0.91 0.06,-0.23 0.58,-0.35 0.55,-1.05 1.41,-1.64 1.9,-3.15 0.37,-1.16 0.44,-2.7 0.18,-4.15 -1.05,-5.9 -4.09,-16.21 -5.53,-23.11l-2.53 -10.61c1.14,-0.11 2.2,-0.08 3.25,-0.38 1.2,-0.35 1.54,-0.84 2.58,-1.24 0.27,-0.57 0.67,-0.9 1.02,-1.59 1.56,0.17 5.4,1.29 6.98,1.74 7.05,2 11.94,4.43 18.35,7.27 8.77,4.74 15.8,9.58 21.57,16.18 3.53,4.03 9.04,4.28 9.01,-5.11l-0 -85c0,-6.92 -0.31,-4.39 -1.4,-7.88 -1.85,-0.75 -4.16,-2.51 -7.1,0.97 -1.83,2.17 -3.21,3.46 -5.15,5.28 -4.48,4.21 -7.92,5.79 -12.17,8.7zm-64.21 54.76l28.79 0 0 -40.1c-1.06,-0.22 -3.91,-0.13 -4.73,-0.13 -4.31,0 -8.62,-0.11 -12.93,-0.11 -2.49,0 -5,0.02 -7.49,0.1 -1.02,0.04 -2.52,0.05 -3.64,0.21 -0.06,0.29 -0.11,0.71 -0.13,1.17 0,13.16 0,25.64 0,38.4 0.03,0.18 0.08,0.34 0.13,0.46zm20.99 5.91l-13.46 0 6.96 29.16c0.37,1.47 1.1,5.17 1.89,6.34 0.35,0.52 1.07,0.91 1.65,1.18 2.16,0.56 8.08,0.42 10.35,0.23 0.18,-0.02 0.34,-0.05 0.5,-0.09 0.17,-0.15 0.34,-0.29 0.53,-0.42 0,-0.01 0.01,-0.01 0.01,-0.02 0.07,-0.33 0.04,-0.88 -0.02,-1.21 -1.36,-7.61 -3.88,-15.23 -5.48,-22.86l-2.93 -12.31zm13.34 -8.86l0 -34.02 0.82 -0.14c5.58,-0.95 10.34,-3.24 15.7,-4.61l0.45 -0.12 5.49 -2.37c0.88,-0.38 1.59,-0.72 2.25,-1.17 2.8,-1.02 6.18,-3.02 8.2,-4.19l0.19 -0.11 0.18 -0.13c1.45,-0.99 2.94,-1.91 4.43,-2.85 3.08,-1.95 5.8,-3.93 8.47,-6.43 1.22,-1.14 2.38,-2.26 3.5,-3.43 -0,0.24 -0.01,0.47 -0.01,0.68l0 84.44c-6.26,-6.62 -13.66,-11.47 -21.7,-15.81l-0.21 -0.11 -0.22 -0.1c-6.45,-2.86 -12.3,-5.62 -19.15,-7.56 -2.47,-0.7 -5.47,-1.66 -7.98,-1.93l-0.43 -0.05zm-39.99 -26.99l0 20.5 -0.39 -0.01c-0.97,-0.02 -2.03,0.18 -2.91,-0.28 -0.13,-0.07 -0.58,-0.31 -0.66,-0.47 -0.55,-1.06 -0.17,-8.25 -0.19,-9.72 -0.01,-1.42 -0.4,-8.42 0.34,-9.49 0.55,-0.43 2.69,-0.53 3.31,-0.53l0.49 -0zm114.22 14.76c0.1,-1.08 0.13,-0.61 0.33,-0.85 -0.5,-2.22 0.48,-8.39 -2.64,-14.82 -0.54,-1.11 -1.62,-2.85 -1.92,-3.82 -0.87,-0.8 -1.07,-1.9 -2.83,-2.14 -1.71,-0.23 -2.74,0.24 -3.44,1.48 -1.42,2.5 1.06,4.88 2,7.03 2.7,6.2 2.72,14.13 -0.55,20.5 -0.45,0.87 -1.6,2.46 -1.8,3.17 -0.96,3.45 2.76,5.7 5.15,3.82 2.46,-1.93 5.58,-10.17 5.71,-14.35z"/>
 </g>
</svg>
