<?xml version="1.0" encoding="UTF-8"?>
<!DOCTYPE svg PUBLIC "-//W3C//DTD SVG 1.1//EN" "http://www.w3.org/Graphics/SVG/1.1/DTD/svg11.dtd">
<!-- Creator: CorelDRAW 2020 (64-Bit) -->
<svg xmlns="http://www.w3.org/2000/svg" xml:space="preserve" width="47.647mm" height="35.7403mm" version="1.1" style="shape-rendering:geometricPrecision; text-rendering:geometricPrecision; image-rendering:optimizeQuality; fill-rule:evenodd; clip-rule:evenodd"
viewBox="0 0 122.39 91.81"
 xmlns:xlink="http://www.w3.org/1999/xlink"
 xmlns:xodm="http://www.corel.com/coreldraw/odm/2003">
 <defs>
  <style type="text/css">
   <![CDATA[
    .fil0 {fill:#a5a7a9;fill-rule:nonzero}
   ]]>
  </style>
 </defs>
 <g id="Layer_x0020_1">
  <metadata id="CorelCorpID_0Corel-Layer"/>
  <path class="fil0" d="M8.6 0l105.19 0c2.37,0 4.52,0.97 6.08,2.52 1.56,1.56 2.52,3.71 2.52,6.08l0 74.61c0,2.37 -0.97,4.52 -2.52,6.08 -1.56,1.56 -3.71,2.52 -6.08,2.52l-105.19 0c-2.37,0 -4.52,-0.97 -6.08,-2.52 -1.56,-1.56 -2.52,-3.71 -2.52,-6.08l0 -74.61c0,-2.37 0.97,-4.52 2.52,-6.08 1.56,-1.56 3.71,-2.52 6.08,-2.52zm10.47 67.15c0,1.36 -1.1,2.46 -2.46,2.46 -1.36,0 -2.46,-1.1 -2.46,-2.46 0,-6.56 3.03,-12.47 7.92,-16.73 2.6,-2.26 5.73,-4.06 9.21,-5.23 -0.31,-0.26 -0.61,-0.54 -0.89,-0.82 -2.66,-2.66 -4.3,-6.33 -4.3,-10.38 0,-4.05 1.64,-7.73 4.3,-10.38 2.66,-2.66 6.33,-4.3 10.38,-4.3 4.05,0 7.73,1.64 10.38,4.3 2.66,2.66 4.3,6.33 4.3,10.38 0,4.05 -1.64,7.73 -4.3,10.38 -0.29,0.29 -0.59,0.56 -0.89,0.82 3.48,1.17 6.61,2.97 9.21,5.23 4.89,4.26 7.92,10.18 7.92,16.73 0,1.36 -1.1,2.46 -2.46,2.46 -1.36,0 -2.46,-1.1 -2.46,-2.46 0,-5.06 -2.38,-9.67 -6.23,-13.02 -3.65,-3.18 -8.62,-5.24 -14.15,-5.52 -0.43,0.04 -0.87,0.06 -1.31,0.06 -0.44,0 -0.88,-0.02 -1.32,-0.06 -5.53,0.28 -10.5,2.34 -14.15,5.52 -3.85,3.35 -6.23,7.96 -6.23,13.02zm20.53 -23.48c0.39,-0.01 0.78,-0.02 1.17,-0.02 0.39,0 0.78,0.01 1.17,0.02 2.23,-0.27 4.23,-1.28 5.74,-2.79 1.77,-1.77 2.86,-4.21 2.86,-6.9 0,-2.7 -1.09,-5.14 -2.86,-6.9 -1.77,-1.77 -4.21,-2.86 -6.9,-2.86 -2.7,0 -5.14,1.09 -6.9,2.86 -1.77,1.77 -2.86,4.21 -2.86,6.9 0,2.7 1.09,5.14 2.86,6.9 1.51,1.51 3.51,2.52 5.74,2.79zm38.16 17.95l22.55 0c1.52,0 2.77,1.24 2.77,2.77l0 0c0,1.52 -1.25,2.77 -2.77,2.77l-22.55 0c-1.52,0 -2.77,-1.24 -2.77,-2.77l0 -0c0,-1.52 1.24,-2.77 2.77,-2.77zm0 -19.12l22.55 0c1.52,0 2.77,1.24 2.77,2.77l0 0c0,1.52 -1.25,2.77 -2.77,2.77l-22.55 0c-1.52,0 -2.77,-1.24 -2.77,-2.77l0 0c0,-1.52 1.24,-2.77 2.77,-2.77zm0 -19.12l22.55 0c1.52,0 2.77,1.24 2.77,2.77l0 0c0,1.52 -1.25,2.77 -2.77,2.77l-22.55 0c-1.52,0 -2.77,-1.24 -2.77,-2.77l0 -0c0,-1.52 1.24,-2.77 2.77,-2.77zm36.03 -18.45l-105.19 0c-1.01,0 -1.93,0.41 -2.59,1.08 -0.67,0.67 -1.08,1.59 -1.08,2.59l0 74.61c0,1.01 0.41,1.93 1.08,2.59 0.67,0.67 1.59,1.08 2.59,1.08l105.19 0c1.01,0 1.93,-0.41 2.59,-1.08 0.67,-0.67 1.08,-1.59 1.08,-2.59l0 -74.61c0,-1.01 -0.41,-1.93 -1.08,-2.59 -0.67,-0.67 -1.59,-1.08 -2.59,-1.08z"/>
 </g>
</svg>
