<svg width="159" height="218" viewBox="0 0 159 218" fill="none" xmlns="http://www.w3.org/2000/svg">
<ellipse cx="79.5" cy="139" rx="79.5" ry="79" fill="#FEF5FA"/>
<g clip-path="url(#clip0_601_3427)">
<path d="M108.81 3.07485C108.81 3.07485 114.591 1.93602 119.636 9.96476C124.68 17.9935 124.397 28.7554 124.057 39.0049C123.717 49.2543 124.34 62.5217 124.624 67.1909C124.907 71.8601 130.008 76.3585 130.008 76.3585L57.7411 78.0667C57.7411 78.0667 61.4253 66.3937 66.98 53.9805C72.4779 41.5673 77.2957 21.6378 77.2957 21.6378C77.2957 21.6378 70.2107 23.2891 70.8342 19.1893C71.4577 15.1464 75.482 10.5911 86.5913 4.78309C97.7006 -1.02494 105.069 -0.797171 108.81 3.07485Z" fill="black" stroke="black" stroke-miterlimit="10"/>
<path d="M52.243 158.582C55.1903 152.66 57.0608 147.421 57.8543 145.371C56.3806 141.727 51.3361 132.446 51.3361 132.446L48.332 127.036C48.332 127.036 48.8988 125.385 48.7855 120.944C48.6721 116.502 48.9555 114.111 48.9555 114.111C48.9555 114.111 45.8381 88.3731 45.8381 84.7857C45.8381 81.1984 45.8381 76.9848 46.745 75.789C47.6519 74.5932 53.7733 70.3796 66.3563 66.3367C78.9393 62.2939 83.1336 62.1231 84.0405 61.8384C84.9474 61.5536 100.818 62.8633 100.818 62.8633C100.818 62.8633 125.644 67.077 126.891 68.4436C128.081 69.8102 123.603 136.147 123.603 136.147C123.603 136.147 125.474 140.987 125.927 144.631C127.911 150.61 134.429 169.856 135.166 179.024C136.073 190.014 135.903 193.145 135.903 193.145C135.903 193.145 116.122 202.142 106.429 204.135C96.6802 206.071 88.1782 207.722 88.1782 207.722L84.8907 198.839L80.6964 207.551C80.6964 207.551 63.9191 201.231 58.081 197.017C52.243 192.804 44.5911 183.01 44.5911 183.01C44.5911 183.01 48.6721 165.813 52.243 158.582Z" fill="#F2F6FF" stroke="black" stroke-miterlimit="10"/>
<path d="M69.9434 158.834C71.8476 152.909 73.056 147.668 73.5686 145.617C72.6166 141.971 69.3576 132.684 69.3576 132.684L67.4168 127.272C67.4168 127.272 67.783 125.62 67.7097 121.176C67.6365 116.733 67.8196 114.34 67.8196 114.34C67.8196 114.34 65.8056 88.589 65.8056 84.9998C65.8056 81.4106 65.8056 77.1948 66.3915 75.9984C66.9774 74.802 70.9321 70.5862 79.0614 66.5412C87.1906 62.4963 89.9003 62.3254 90.4862 62.0405C91.0721 61.7557 101.325 63.066 101.325 63.066C101.325 63.066 117.364 67.2818 118.17 68.6491C118.939 70.0164 116.046 136.388 116.046 136.388C116.046 136.388 117.254 141.23 117.547 144.876C118.829 150.858 123.04 170.114 123.516 179.287C124.102 190.282 123.992 193.415 123.992 193.415C123.992 193.415 111.212 202.417 104.95 204.411C98.6521 206.348 93.1594 208 93.1594 208L91.0355 199.113L88.3258 207.829C88.3258 207.829 77.4868 201.505 73.7151 197.289C69.9434 193.074 65 183.275 65 183.275C65 183.275 67.6365 166.069 69.9434 158.834Z" fill="white"/>
<path d="M55.6436 77.4402C55.6436 77.4402 60.8015 84.2732 61.8784 87.7466" stroke="black" stroke-miterlimit="10"/>
<path d="M79.166 147.877C79.166 147.877 71.7409 149.585 70.3239 150.667C68.9069 151.749 63.2956 153.457 60.8583 153.457C58.4778 153.457 54.7369 152.831 54.7369 152.831L58.5911 148.503C58.5911 148.503 73.4413 146.339 75.7085 146.339C77.9757 146.339 79.166 147.877 79.166 147.877Z" fill="black" stroke="black" stroke-miterlimit="10"/>
<path d="M85.8545 188.191C85.5711 191.266 85.3444 193.316 85.3444 193.544" stroke="black" stroke-miterlimit="10"/>
<path d="M89.5952 151.179C89.5952 151.179 87.328 173.102 86.081 185.401" stroke="black" stroke-miterlimit="10"/>
<path d="M85.7976 115.192C85.7409 115.762 85.6842 116.274 85.5709 116.673C84.9474 119.805 85.7409 123.734 87.2146 124.815C88.6883 125.84 90.0486 130.51 89.4818 131.136" stroke="black" stroke-miterlimit="10"/>
<path d="M86.4775 104.032C86.4775 104.032 86.3642 108.53 86.0808 112.345" stroke="black" stroke-miterlimit="10"/>
<path d="M96.8503 57.1692C96.8503 57.1692 98.8341 57.0553 99.3442 57.6817C99.8543 58.308 103.765 63.0911 103.879 64.116C103.992 65.141 104.275 80.6291 104.275 81.8818C104.275 83.1345 102.518 87.1773 101.611 84.8997C100.705 82.622 100.081 79.718 99.2309 78.2375C98.324 76.7001 96.1134 79.8888 96.1134 79.8888L81.3199 83.9317C81.3199 83.9317 76.5588 81.1415 75.6519 79.3763C74.745 77.6112 74.9151 84.6719 73.7815 84.9566C72.6479 85.1844 71.6276 83.3053 72.7612 79.0347C73.8948 74.7641 73.6681 66.5645 75.2551 61.6106C76.8989 56.7136 78.0325 56.3151 80.6398 56.2012C83.3037 56.0304 96.8503 57.1692 96.8503 57.1692Z" fill="#F2F6FF"/>
<path d="M102 55.3327C102 55.3327 100.746 70.062 100.746 72.587C100.746 75.1121 101.373 85.3525 98.8649 92.0859C96.3569 98.8193 89.3203 120.983 87.7876 121.825C86.3246 122.667 84.6526 120.563 81.9355 113.479C79.2184 106.324 73.0179 95.8734 74.1326 85.3525C75.2473 74.8315 80.1241 54 80.1241 54L102 55.3327Z" fill="white" stroke="black" stroke-miterlimit="10"/>
<path d="M86.5346 58.4789L97.8706 63.0911L98.5508 55.8026L86.5346 58.4789Z" fill="black" stroke="black" stroke-miterlimit="10"/>
<path d="M111.304 36.4426C111.304 36.4426 105.012 52.0445 102.235 54.2653C99.4576 56.5429 89.9353 60.1302 86.6478 59.8455C83.3037 59.5608 79.9029 57.397 78.996 55.3471C78.0891 53.2972 74.3482 47.9448 74.9717 43.6172C75.5952 39.2897 79.7329 23.403 79.7329 23.403C79.7329 23.403 88.1782 22.2072 94.0163 20.2143C99.8543 18.2213 103.142 12.8119 103.142 12.8119C103.142 12.8119 104.219 23.2891 106.713 28.9263C109.263 34.6205 111.304 36.4426 111.304 36.4426Z" fill="white" stroke="black" stroke-miterlimit="10"/>
<path d="M89.5386 32.115C89.5386 32.115 88.6884 36.8411 87.0446 37.8091C85.4576 38.7771 84.8341 39.2896 85.4576 40.4284C86.0811 41.5673 87.9515 42.1936 88.405 42.1936" stroke="black" stroke-miterlimit="10"/>
<path d="M94.583 44.5283C94.583 44.5283 90.8988 48.1156 87.1579 47.4893" stroke="black" stroke-miterlimit="10"/>
<path d="M103.652 32.6844C103.652 32.6844 99.5709 30.2929 96.4535 31.4886" stroke="black" stroke-miterlimit="10"/>
<path d="M89.1985 31.3748C89.1985 31.3748 90.1621 27.1612 85.2876 26.0223" stroke="black" stroke-miterlimit="10"/>
<path d="M94.4698 36.4426C94.1297 37.4676 94.2998 38.4356 94.9233 38.6634C95.5467 38.8911 96.3403 38.2648 96.6803 37.2398C97.0204 36.2149 96.8504 35.2469 96.2269 35.0191C95.6601 34.7913 94.8666 35.4177 94.4698 36.4426Z" fill="black"/>
<path d="M83.3038 32.5706C82.9637 33.5955 83.1338 34.5635 83.7572 34.7913C84.3807 35.0191 85.1742 34.3927 85.5143 33.3678C85.8544 32.3428 85.6844 31.3748 85.0609 31.147C84.4374 30.9193 83.7006 31.5456 83.3038 32.5706Z" fill="black"/>
<path d="M111.304 36.4426L113.571 42.877C113.571 42.877 111.134 46.4074 109.717 47.0337C108.3 47.6601 106.712 46.3504 106.712 46.3504L111.304 36.4426Z" fill="white" stroke="black" stroke-miterlimit="10"/>
<path d="M119.208 131.535C119.208 131.535 89.1106 136.489 82.3656 136.489C75.6207 136.489 69.6126 136.204 68.8757 135.862C68.1389 135.578 58.6733 134.666 57.9365 136.033C57.1996 137.4 57.483 139.962 57.483 139.962C57.483 139.962 56.8596 142.354 57.0296 144.46C57.1996 146.567 58.2199 147.934 58.2199 147.934C58.2199 147.934 57.5964 148.959 58.5033 150.211C59.4102 151.407 59.5235 152.489 61.2239 152.774C62.8676 153.059 66.6085 152.147 67.232 152.034C67.8555 151.863 74.0903 151.123 75.7907 150.211C77.4345 149.3 78.5114 148.845 79.3616 148.56C80.2685 148.275 83.1025 147.934 83.1025 147.934C83.1025 147.934 112.463 149.756 116.77 149.414C121.135 149.13 123.799 149.13 123.799 149.13L119.208 131.535Z" fill="white" stroke="black" stroke-miterlimit="10"/>
<path d="M69.4736 125.442C69.4736 125.442 67.0364 136.09 64.9392 139.279C62.8421 142.411 58.251 147.08 54.1133 145.485C49.9757 143.834 48.8421 144.29 48.1619 136.546C47.4817 128.802 47.6518 123.107 48.7854 121.001C49.919 118.894 51.8461 116.73 51.8461 116.73L69.4736 125.442Z" fill="#F2F6FF" stroke="black" stroke-miterlimit="10"/>
<path d="M65.6397 72.8102C65.6397 72.8102 71.3078 67.8563 74.1418 65.5787C76.9758 63.358 80.7167 59.7707 82.7572 57.6638C84.7976 55.557 85.9879 54.4182 86.2146 56.3542C86.4414 58.2902 83.494 62.8455 82.8705 63.6996C82.247 64.5537 78.8462 68.3688 78.8462 68.3688C78.8462 68.3688 82.8705 71.2159 83.8908 72.0131C84.911 72.8102 84.911 73.7213 85.1944 76.0559C85.4778 78.3905 84.4009 79.4155 82.6438 79.9279C80.8867 80.4404 79.5264 79.3016 79.5264 79.3016C79.5264 79.3016 75.5021 82.0348 72.9515 82.4333C70.4009 82.8319 68.077 84.768 68.077 84.768C68.077 84.768 68.8705 122.349 68.9839 123.317C69.0972 124.228 63.5993 124.001 58.3847 122.292C53.1134 120.584 51.6964 118.534 51.6964 118.534C51.6964 118.534 58.498 86.1915 60.1984 81.6362C61.8989 77.0809 63.7126 73.9491 65.6397 72.8102Z" fill="white" stroke="black" stroke-miterlimit="10"/>
<path d="M79.5266 77.3585L82.1338 75.2517C82.1338 75.2517 82.2472 76.1628 82.7573 76.4475" fill="white"/>
<path d="M79.5266 77.3585L82.1338 75.2517C82.1338 75.2517 82.2472 76.1628 82.7573 76.4475" stroke="black" stroke-miterlimit="10"/>
<path d="M121.506 100.843C121.676 98.7935 121.846 96.9144 121.959 95.3201L121.506 100.843Z" fill="#F2F6FF"/>
<path d="M121.506 100.843C121.676 98.7935 121.846 96.9144 121.959 95.3201" stroke="black" stroke-miterlimit="10"/>
<path d="M118.559 66.9062C118.559 66.9062 133.976 67.8173 134.599 70.3797C135.166 72.8851 136.923 93.2132 137.547 113.2C138.17 133.243 137.093 147.82 135.733 148.276C134.373 148.731 118.956 148.731 118.956 148.731L117.028 131.307L118.672 128.745C118.672 128.745 120.259 108.929 121.279 98.1102" fill="#F2F6FF"/>
<path d="M118.559 66.9062C118.559 66.9062 133.976 67.8173 134.599 70.3797C135.166 72.8851 136.923 93.2132 137.547 113.2C138.17 133.243 137.093 147.82 135.733 148.276C134.373 148.731 118.956 148.731 118.956 148.731L117.028 131.307L118.672 128.745C118.672 128.745 120.259 108.929 121.279 98.1102" stroke="black" stroke-miterlimit="10"/>
<path d="M126.721 119.292C127.401 118.438 127.968 117.755 128.251 117.413" stroke="black" stroke-miterlimit="10"/>
<path d="M130.802 125.556L120.146 127.947C120.146 127.947 122.923 124.246 125.247 121.171" stroke="black" stroke-miterlimit="10"/>
<path d="M116.575 48.8557C116.575 48.8557 120.939 74.5363 121.109 86.3232C121.279 98.1101 116.575 104.943 110.113 107.05C103.652 109.214 98.0405 105.455 99.4008 103.519C100.761 101.64 106.089 105.399 107.96 98.6795C109.83 91.9604 103.142 86.2662 102.858 73.0558C102.575 59.8454 102.858 56.372 102.858 56.372" fill="black"/>
<path d="M116.575 48.8557C116.575 48.8557 120.939 74.5363 121.109 86.3232C121.279 98.1101 116.575 104.943 110.113 107.05C103.652 109.214 98.0405 105.455 99.4008 103.519C100.761 101.64 106.089 105.399 107.96 98.6795C109.83 91.9604 103.142 86.2662 102.858 73.0558C102.575 59.8454 102.858 56.372 102.858 56.372" stroke="black" stroke-miterlimit="10"/>
</g>
<defs>
<clipPath id="clip0_601_3427">
<rect width="98" height="210" fill="white" transform="matrix(-1 0 0 1 138 0)"/>
</clipPath>
</defs>
</svg>
