<svg width="159" height="228" viewBox="0 0 159 228" fill="none" xmlns="http://www.w3.org/2000/svg">
<ellipse cx="79.5" cy="149" rx="79.5" ry="79" fill="#FEF5FA"/>
<g clip-path="url(#clip0_601_3424)">
<path d="M111.785 73.5781C112.038 73.9558 119.316 75.4034 123.051 80.8164C126.785 86.2293 128.557 90.824 128.557 90.824C128.557 90.824 134.823 94.5375 138.051 97.6217C141.278 100.706 145.139 104.797 148.114 106.937C151.089 109.077 157.165 113.105 158.747 117.889C158.747 117.889 149.57 142.813 146.975 148.352C144.38 153.891 137.987 165.598 137.987 165.598L126.595 213.748H60.519L58.2405 197.258C58.2405 197.258 37.9873 193.292 29.5063 185.928C29.5063 185.928 28.6835 167.675 32.2278 151.373C35.7721 135.072 47.7974 101.209 55.962 90.8869C55.962 90.8869 69 84.7187 80.4557 82.7046C80.4557 82.7046 87.924 76.8511 92.7974 76.2217C97.7341 75.5293 111.785 73.5781 111.785 73.5781Z" fill="white"/>
<path d="M59.1265 204.622C65.0126 205.755 70.1392 206.699 76.0885 206.636C82.0379 206.573 88.1771 205.251 93.0505 201.852C94.0632 201.16 95.0126 200.342 96.2151 200.027C98.81 199.272 101.405 201.034 103.937 201.789C107.228 202.797 110.772 202.293 114 201.097C117.228 199.901 120.076 198.013 122.924 196.125C122.481 201.915 122.354 207.706 122.544 213.497L126.595 213.685L137.038 168.053C137.038 168.053 119.19 188.635 110.519 194.803L93.8733 190.523C93.8733 190.523 92.2911 191.845 88.9999 192.474C88.9999 192.474 87.4809 198.265 78.9999 198.265C70.5189 198.265 58.3037 197.132 58.3037 197.132L59.1265 204.622Z" fill="#DEE8FE"/>
<path opacity="0.5" d="M59.1265 204.622C65.0126 205.755 70.1392 206.699 76.0885 206.636C82.0379 206.573 88.1771 205.251 93.0505 201.852C94.0632 201.16 95.0126 200.342 96.2151 200.027C98.81 199.272 101.405 201.034 103.937 201.789C107.228 202.797 110.772 202.293 114 201.097C117.228 199.901 120.076 198.013 122.924 196.125C122.481 201.915 122.354 207.706 122.544 213.497L126.595 213.685L137.038 168.053C137.038 168.053 119.19 188.635 110.519 194.803L93.8733 190.523C93.8733 190.523 92.2911 191.845 88.9999 192.474C88.9999 192.474 87.4809 198.265 78.9999 198.265C70.5189 198.265 58.3037 197.132 58.3037 197.132L59.1265 204.622Z" fill="white"/>
<path d="M42.0378 119.525C42.0378 119.525 34.253 156.912 34.696 169.752C34.696 169.752 45.2024 166.794 52.5441 169.752C52.5441 169.752 40.0758 168.368 34.696 174.032C29.3163 179.76 45.8986 194.677 78.9998 191.656C78.9998 191.656 85.5821 193.733 88.9365 192.537C88.9365 192.537 88.0505 198.516 78.9365 198.328C69.8226 197.95 43.3036 197.761 29.5062 185.865C29.5062 185.865 27.7973 151.499 42.0378 119.525Z" fill="#DEE8FE"/>
<path opacity="0.6" d="M42.0378 119.525C42.0378 119.525 34.253 156.912 34.696 169.752C34.696 169.752 45.2024 166.794 52.5441 169.752C52.5441 169.752 40.0758 168.368 34.696 174.032C29.3163 179.76 45.8986 194.677 78.9998 191.656C78.9998 191.656 85.5821 193.733 88.9365 192.537C88.9365 192.537 88.0505 198.516 78.9365 198.328C69.8226 197.95 43.3036 197.761 29.5062 185.865C29.5062 185.865 27.7973 151.499 42.0378 119.525Z" fill="white"/>
<path d="M57.8606 126.7C57.8606 126.7 60.1391 143.254 63.81 146.716C67.4809 150.177 84.696 149.045 91.5315 152.758C91.5315 152.758 97.9239 141.743 109.506 134.82L93.81 159.43L80.2657 156.22L63.6834 153.702L62.291 156.912H59.8226C59.7593 156.849 59.5062 139.226 57.8606 126.7Z" fill="#DEE8FE"/>
<path opacity="0.5" d="M57.8606 126.7C57.8606 126.7 60.1391 143.254 63.81 146.716C67.4809 150.177 84.696 149.045 91.5315 152.758C91.5315 152.758 97.9239 141.743 109.506 134.82L93.81 159.43L80.2657 156.22L63.6834 153.702L62.291 156.912H59.8226C59.7593 156.849 59.5062 139.226 57.8606 126.7Z" fill="white"/>
<path d="M122.861 92.9641C129.949 97.1182 130.772 101.839 132.228 105.175C128.557 105.93 124.696 106.685 121.658 108.888C117.861 111.658 115.772 116.189 114.19 120.595C112.671 124.749 111.405 129.029 110.392 133.372C113.81 127.204 118.747 121.917 124.633 118.078C128.051 115.812 132.291 114.049 136.152 115.308C132.861 116.693 129.19 118.581 128.494 121.98C128.367 122.546 128.367 123.176 128.557 123.742C129.126 125.379 131.152 125.819 132.734 126.575C135.772 128.148 137.291 131.61 137.418 135.009C137.544 138.345 136.532 141.681 135.456 144.891C134.57 147.723 133.62 150.492 132.734 153.325C131.595 156.912 130.392 160.563 128.304 163.71C126.215 166.857 123.051 169.501 119.316 170.13C117.734 170.382 116.089 170.256 114.696 169.626C113.557 169.123 112.607 168.242 111.658 167.486C107.228 163.899 101.721 161.57 96.0885 160.815C103.43 165.661 106.911 174.41 109.949 182.655C108.557 180.201 106.532 178.186 104.126 176.739C103.494 176.361 102.734 175.983 101.975 176.046C99.9493 176.235 99.3164 178.753 98.1138 180.326C96.6581 182.215 94.0632 182.907 91.6581 182.592C89.3164 182.278 87.1012 181.208 85.0126 180.075C76.0252 175.48 67.1012 170.885 58.1138 166.291L56.2151 171.955C56.2151 171.955 77.6708 188.949 110.456 194.992C110.456 194.992 131.785 178.249 139.316 163.395C146.848 148.541 158.62 118.078 158.62 118.078C158.62 118.078 154.316 109.958 146.975 105.741C146.975 105.741 141.468 103.161 140.329 99.9505C139.19 96.7405 128.81 91.2646 128.81 91.2646C128.81 91.2646 130.266 94.4746 122.861 92.9641Z" fill="#DEE8FE"/>
<path opacity="0.6" d="M122.861 92.9641C129.949 97.1182 130.772 101.839 132.228 105.175C128.557 105.93 124.696 106.685 121.658 108.888C117.861 111.658 115.772 116.189 114.19 120.595C112.671 124.749 111.405 129.029 110.392 133.372C113.81 127.204 118.747 121.917 124.633 118.078C128.051 115.812 132.291 114.049 136.152 115.308C132.861 116.693 129.19 118.581 128.494 121.98C128.367 122.546 128.367 123.176 128.557 123.742C129.126 125.379 131.152 125.819 132.734 126.575C135.772 128.148 137.291 131.61 137.418 135.009C137.544 138.345 136.532 141.681 135.456 144.891C134.57 147.723 133.62 150.492 132.734 153.325C131.595 156.912 130.392 160.563 128.304 163.71C126.215 166.857 123.051 169.501 119.316 170.13C117.734 170.382 116.089 170.256 114.696 169.626C113.557 169.123 112.607 168.242 111.658 167.486C107.228 163.899 101.721 161.57 96.0885 160.815C103.43 165.661 106.911 174.41 109.949 182.655C108.557 180.201 106.532 178.186 104.126 176.739C103.494 176.361 102.734 175.983 101.975 176.046C99.9493 176.235 99.3164 178.753 98.1138 180.326C96.6581 182.215 94.0632 182.907 91.6581 182.592C89.3164 182.278 87.1012 181.208 85.0126 180.075C76.0252 175.48 67.1012 170.885 58.1138 166.291L56.2151 171.955C56.2151 171.955 77.6708 188.949 110.456 194.992C110.456 194.992 131.785 178.249 139.316 163.395C146.848 148.541 158.62 118.078 158.62 118.078C158.62 118.078 154.316 109.958 146.975 105.741C146.975 105.741 141.468 103.161 140.329 99.9505C139.19 96.7405 128.81 91.2646 128.81 91.2646C128.81 91.2646 130.266 94.4746 122.861 92.9641Z" fill="white"/>
<path d="M120.645 35.0582C120.645 35.0582 122.101 18.3788 114.886 16.8053C107.671 15.2317 103.62 8.62292 103.62 8.62292L77.9239 15.7353L73.9365 31.03L76.4682 38.7717C76.4682 38.7717 76.9745 45.947 77.1011 49.5347C77.2277 53.1223 77.1011 55.8288 79.8226 60.1717C82.5441 64.4517 85.0758 68.7947 90.8986 72.5082V82.327C90.8986 82.327 87.291 92.8382 89.253 99.2582C89.253 99.2582 90.4555 100.517 93.7467 98.6288C97.0378 96.7406 111.152 87.3623 116.088 77.5435L117.607 52.6188C117.607 52.6188 121.658 53.2482 123.43 49.5347C126.025 45.947 125.899 41.73 124.886 38.2682C123.873 34.8065 119.569 37.0723 119.569 37.0723L120.645 35.0582Z" fill="white"/>
<path d="M81.6582 13.5952C81.6582 13.5952 75.519 21.5887 75.8988 29.9599C76.2785 38.3311 77.481 44.2476 77.1013 50.6676C76.7215 57.0876 83.557 67.9135 90.5823 72.2564C95.8355 75.5293 102.354 74.9629 107.481 71.564C113.177 67.7876 116.342 60.9899 117.481 54.507C117.608 53.8776 117.671 53.2482 117.734 52.5558" stroke="#263238" stroke-miterlimit="10" stroke-linecap="round" stroke-linejoin="round"/>
<path d="M90.5822 72.3193C90.5822 72.3193 91.5949 81.3199 90.5822 84.404C89.5063 87.8028 88.1772 95.6705 89.3164 99.2581C90.4557 102.846 112.038 87.8028 116.215 77.5434C116.215 77.5434 116.785 57.5281 118.24 52.5558" stroke="#263238" stroke-miterlimit="10" stroke-linecap="round" stroke-linejoin="round"/>
<path d="M90.0605 59.7464C90.0605 59.7464 97.7631 60.8125 100.894 56.9357" stroke="#263238" stroke-miterlimit="10" stroke-linecap="round" stroke-linejoin="round"/>
<path d="M90.8354 74.4593C90.8354 74.4593 92.9241 80.8793 97.4177 81.257C101.911 81.6346 113.177 72.634 117.038 62.0599V56.7728C117.038 56.7728 113.873 70.6199 104.633 73.1375C95.3924 75.7181 91.0253 72.4452 91.0253 72.4452L90.8354 74.4593Z" fill="#263238"/>
<path d="M92.3542 34.24C92.3542 36.2541 92.3542 38.2682 92.1011 40.2194C91.8479 41.9818 91.0251 43.6812 90.3289 45.3806C89.696 46.8912 88.6201 49.22 89.5061 50.8565C90.5188 52.6818 93.8099 50.8565 93.8099 50.8565" stroke="#263238" stroke-miterlimit="10" stroke-linecap="round" stroke-linejoin="round"/>
<path d="M95.8987 50.4788C97.0379 50.6046 98.6202 50.4788 98.9367 48.5276" stroke="#263238" stroke-miterlimit="10" stroke-linecap="round" stroke-linejoin="round"/>
<path d="M99.5063 31.8482C99.5063 31.8482 103.241 28.1976 107.544 31.8482" stroke="#263238" stroke-width="2" stroke-miterlimit="10" stroke-linecap="round" stroke-linejoin="round"/>
<path d="M86.7214 33.4217C86.7214 33.4217 83.7467 29.6452 79.886 33.4217" stroke="#263238" stroke-width="2" stroke-miterlimit="10" stroke-linecap="round" stroke-linejoin="round"/>
<path d="M115.393 42.9888C115.393 42.9888 118.81 34.9323 123.177 36.6317C126.215 37.8276 126.405 43.0517 124.823 46.6394C123.177 50.227 122.418 54.0035 117.038 51.9264" stroke="#263238" stroke-miterlimit="10" stroke-linecap="round" stroke-linejoin="round"/>
<path d="M116.025 41.7299C116.025 41.7299 112.797 40.597 112.165 35.3099C111.595 30.0858 114.823 24.7988 113.62 20.9594C112.418 17.1199 102.924 19.0711 100.772 12.4623C100.772 12.4623 93.6836 17.7494 79.8861 16.6164C79.8861 16.6164 76.9747 21.5258 76.4684 24.547C75.962 27.4423 75.6456 33.6735 76.5317 38.7088C76.5317 38.8976 76.5949 39.0235 76.5949 39.2123C77.6076 44.3105 72.6709 32.2258 72.7975 27.0646C72.9241 21.9035 69.8228 15.3576 73.8734 10.4482C77.9874 5.60171 92.9241 2.76935 95.8987 0.50347C98.8734 -1.76241 104.633 4.34288 111.215 6.60877C117.797 8.87465 123.367 11.5811 122.481 20.8964C121.658 30.2117 122.544 31.4705 122.544 36.4429C122.544 36.3799 119.506 35.247 116.025 41.7299Z" fill="#263238"/>
<path d="M103.557 38.7087C103.557 39.9675 103.051 41.0375 102.481 41.0375C101.848 41.0375 101.405 40.0305 101.405 38.7087C101.405 37.4499 101.911 36.3799 102.481 36.3799C103.051 36.3799 103.557 37.4499 103.557 38.7087Z" fill="#263238"/>
<path d="M86.7215 38.7087C86.7215 39.9675 86.2151 41.0375 85.6455 41.0375C85.0126 41.0375 84.5696 40.0305 84.5696 38.7087C84.5696 37.4499 85.0759 36.3799 85.6455 36.3799C86.2784 36.3799 86.7215 37.4499 86.7215 38.7087Z" fill="#263238"/>
<path d="M93.7468 100.769C96.8481 98.8176 100.899 99.5728 104.253 100.958C106.089 101.713 107.861 102.657 109.696 103.475C110.582 103.853 111.532 104.23 112.481 104.482C114.823 105.112 113.937 102.216 113.81 100.958C113.62 99.1323 113.494 97.307 113.241 95.4817C113.177 95.104 113.177 94.6634 113.367 94.3487C113.557 94.034 113.937 93.9081 114.253 93.7823C118.304 92.5234 122.671 93.0899 126.911 93.1529C127.291 93.1529 127.734 93.1529 128.051 92.964C128.684 92.5234 128.62 91.6423 128.43 90.887C126.975 84.6558 121.785 78.4876 116.215 75.4034" stroke="#263238" stroke-miterlimit="10" stroke-linecap="round" stroke-linejoin="round"/>
<path d="M90.962 76.3475C88.1772 77.4805 85.3291 78.7393 82.9241 80.5017C82.038 81.1311 81.2152 81.8234 80.519 82.6417C80.0127 83.2081 79.5063 83.9634 79.5063 84.7187C79.5063 85.474 79.9494 86.1034 80.519 86.6069C80.962 86.9846 81.4051 87.2364 81.9114 87.4881C83.0506 88.0546 84.4431 88.5581 84.9494 89.754C85.076 90.0058 85.1393 90.2575 85.076 90.5722C85.0127 90.824 84.8861 91.0128 84.6962 91.2016C83.7469 92.3346 82.038 93.2787 82.1646 94.7893C82.2279 95.9222 83.4304 96.6775 84.5063 97.1811C85.5823 97.6846 86.7848 98.2511 87.1646 99.3211" stroke="#263238" stroke-miterlimit="10" stroke-linecap="round" stroke-linejoin="round"/>
<path d="M74.4429 17.3717C74.8226 14.854 77.4808 13.2176 80.0125 12.8399C82.5441 12.3993 85.1391 12.8399 87.734 12.6511C92.0378 12.2735 96.0884 9.94463 98.5568 6.41992" stroke="white" stroke-miterlimit="10" stroke-linecap="round" stroke-linejoin="round"/>
<path d="M77.291 10.2593C81.9113 7.55288 88.367 10.3852 92.7973 7.48993C94.1265 6.6717 95.0758 5.41288 96.0885 4.15405" stroke="white" stroke-miterlimit="10" stroke-linecap="round" stroke-linejoin="round"/>
<path d="M135.962 113.609C119.506 116.882 113.367 128.904 113.367 128.904L93.8733 159.43" stroke="#263238" stroke-miterlimit="10" stroke-linecap="round" stroke-linejoin="round"/>
<path d="M122.038 110.273C123.43 109.014 124.949 107.944 126.595 107.189" stroke="#263238" stroke-miterlimit="10" stroke-linecap="round" stroke-linejoin="round"/>
<path d="M110.519 133.309C110.519 133.309 112.607 122.295 118.557 114.175" stroke="#263238" stroke-miterlimit="10" stroke-linecap="round" stroke-linejoin="round"/>
<path d="M59.7594 156.849C59.7594 156.849 58.9366 123.05 55.9619 117.889" stroke="#263238" stroke-miterlimit="10" stroke-linecap="round" stroke-linejoin="round"/>
<path d="M128.494 90.887C128.494 90.887 137.987 96.5517 142.228 101.902C146.468 107.252 156.405 110.776 158.683 117.952C158.683 117.952 145.582 159.052 131.785 173.906C117.987 188.76 110.456 194.866 110.456 194.866C110.456 194.866 77.4176 189.138 55.9619 171.263L63.6201 153.702C63.6201 153.702 85.2657 156.409 93.81 159.43C102.354 162.451 110.456 180.767 110.456 180.767" stroke="#263238" stroke-miterlimit="10" stroke-linecap="round" stroke-linejoin="round"/>
<path d="M93.8733 159.43C93.8733 159.43 109 162.325 113.937 169.186" stroke="#263238" stroke-miterlimit="10" stroke-linecap="round" stroke-linejoin="round"/>
<path d="M137.418 166.479L126.595 213.685H60.519L58.2405 197.195" stroke="#263238" stroke-miterlimit="10" stroke-linecap="round" stroke-linejoin="round"/>
<path d="M88.9999 192.537C85.329 199.964 80.5189 198.327 80.5189 198.327C43.3037 199.712 29.5695 185.865 29.5695 185.865C29.5695 185.865 27.6708 166.416 35.0126 140.107C42.3544 113.797 56.0252 90.824 56.0252 90.824C62.1012 86.7957 75.7088 83.6487 79.5063 82.8304C80.1392 82.7045 80.5189 82.6416 80.5189 82.6416" stroke="#263238" stroke-miterlimit="10" stroke-linecap="round" stroke-linejoin="round"/>
<path d="M80.5189 198.327C80.5189 198.327 78.5569 198.013 79.0632 185.047" stroke="#263238" stroke-miterlimit="10" stroke-linecap="round" stroke-linejoin="round"/>
<path d="M56.9746 172.018C56.9746 172.018 47.6708 168.745 36.1519 176.676" stroke="#263238" stroke-miterlimit="10" stroke-linecap="round" stroke-linejoin="round"/>
<path d="M38.2405 169.186C38.2405 169.186 50.4557 165.598 55.962 171.326" stroke="#263238" stroke-miterlimit="10" stroke-linecap="round" stroke-linejoin="round"/>
<path d="M54.6962 171.074L56.2784 171.892L62.2911 156.912C62.2911 156.912 56.0253 155.905 46.1519 168.116C46.1519 168.116 50.3924 167.864 54.6962 171.074Z" fill="white" stroke="#263238" stroke-miterlimit="10"/>
<path d="M79.0632 185.047V191.719C79.0632 191.719 87.6075 194.236 93.8734 190.649L79.0632 185.047Z" fill="white" stroke="#263238" stroke-miterlimit="10"/>
<path d="M125.266 93.09C125.266 93.2159 125.266 93.3418 125.202 93.4676C124.949 94.4747 118.43 118.896 97.6075 129.785C97.4176 129.911 97.2277 129.911 97.0378 129.911C96.5948 129.911 96.1518 129.659 95.8986 129.218C95.5821 128.589 95.8353 127.834 96.4049 127.519C115.392 117.637 122.101 95.0412 122.671 92.9641L125.266 93.09Z" fill="#263238"/>
<path d="M80.4557 86.607C78.3038 91.2646 75.519 99.384 75.2025 110.273C75.2025 110.965 75.2025 111.595 75.2025 112.287C75.2025 112.476 75.2025 112.602 75.2025 112.79C75.0127 112.79 74.8228 112.79 74.6329 112.853C73.9367 112.979 73.3038 113.168 72.6709 113.483C72.6709 112.539 72.6709 111.658 72.6709 110.776C72.9241 96.6775 77.1646 87.0475 79.443 82.8934C80.076 82.7675 80.4557 82.7046 80.4557 82.7046C79.9494 83.2711 79.443 84.0264 79.443 84.7817C79.443 85.474 79.8861 86.1034 80.4557 86.607Z" fill="#263238"/>
<path d="M105.392 124.057C106.848 126.134 105.646 129.47 102.671 131.673C99.6962 133.813 96.0886 133.876 94.5696 131.862C93.1139 129.785 94.3164 126.449 97.2911 124.246C100.266 122.106 103.937 122.043 105.392 124.057Z" fill="white" stroke="#263238" stroke-miterlimit="10" stroke-linecap="round" stroke-linejoin="round"/>
<path d="M101.722 122.861C102.797 124.309 101.911 126.7 99.8228 128.211C97.7342 129.722 95.1392 129.785 94.1266 128.337C93.0506 126.889 93.9367 124.497 96.0253 122.987C98.1139 121.476 100.646 121.413 101.722 122.861Z" fill="white" stroke="#263238" stroke-miterlimit="10" stroke-linecap="round" stroke-linejoin="round"/>
<path d="M85.0126 148.415C84.443 148.856 83.6835 148.73 83.2405 148.163C82.8607 147.597 82.924 146.842 83.4936 146.401C83.6202 146.338 87.8607 142.688 85.962 130.603C85.7721 129.596 85.5822 128.463 85.3291 127.33C84.5063 123.679 83.3037 119.022 80.7721 115.623C79.3164 113.672 77.3544 112.665 75.2025 112.853C75.0126 112.853 74.8227 112.853 74.6329 112.916C73.9367 113.042 73.3037 113.231 72.6708 113.546C70.8987 114.427 69.443 116.063 68.6835 118.203L68.4303 118.833C67.481 121.539 65.8987 126.008 64.9493 130.666C63.9367 135.575 63.6202 140.799 65.3923 144.387C66.405 146.464 67.9873 147.786 70.3291 148.541C71.0253 148.73 71.3417 149.485 71.1518 150.115C70.962 150.618 70.4556 150.996 69.9493 150.996C69.8227 150.996 69.6961 150.996 69.5696 150.933C66.6582 149.989 64.5063 148.163 63.1772 145.52C61.1518 141.429 61.405 135.89 62.4177 130.666C63.367 125.63 65.0759 120.847 66.0886 118.015L66.3417 117.385C67.481 114.238 69.8227 111.846 72.7341 110.839C73.2404 110.65 73.8101 110.525 74.3164 110.462C74.6329 110.399 74.9493 110.399 75.2658 110.336C78.1772 110.21 80.8987 111.595 82.7974 114.175C85.6455 117.952 86.9746 122.924 87.7974 126.889C88.1139 128.211 88.3037 129.47 88.4936 130.729C90.5189 144.198 85.2658 148.226 85.0126 148.415Z" fill="#263238" stroke="#263238" stroke-miterlimit="10"/>
<path d="M68.9999 150.681C68.9999 150.681 73.6201 152.569 74.7594 150.681C75.8986 148.793 75.0125 147.912 73.367 147.723C71.7214 147.534 68.6201 147.723 68.6201 147.723L68.9999 150.681Z" fill="#263238" stroke="#263238" stroke-miterlimit="10"/>
<path d="M71.1518 150.052C70.962 150.555 70.4556 150.933 69.9493 150.933C69.8227 150.933 69.6961 150.933 69.5696 150.87C66.6582 149.926 64.5063 148.1 63.1772 145.457C61.1518 141.366 61.405 135.827 62.4177 130.603H64.9493C63.9367 135.575 63.6202 140.736 65.3923 144.324C66.405 146.401 68.0506 147.723 70.3291 148.478C70.962 148.667 71.3417 149.422 71.1518 150.052Z" fill="white" stroke="#263238" stroke-miterlimit="10" stroke-linecap="round" stroke-linejoin="round"/>
<path d="M80.772 147.03C80.3922 147.471 80.2024 148.1 80.2657 148.667C80.4555 149.548 81.4049 150.115 82.291 150.052C83.177 149.989 83.9998 149.422 84.5695 148.793C85.2024 148.1 87.4176 143.506 85.3922 144.261C83.9998 144.828 81.7214 145.772 80.772 147.03Z" fill="#263238" stroke="#263238" stroke-miterlimit="10"/>
<path d="M85.0127 148.415C84.4431 148.856 83.6836 148.73 83.2405 148.163C82.7975 147.597 82.9241 146.842 83.4937 146.401C83.6203 146.338 87.8608 142.75 85.9621 130.603H88.4937C90.519 144.198 85.2659 148.226 85.0127 148.415Z" fill="white" stroke="#263238" stroke-miterlimit="10" stroke-linecap="round" stroke-linejoin="round"/>
<path d="M111.658 37.1353L114.949 38.7088" stroke="#263238" stroke-miterlimit="10"/>
</g>
<defs>
<clipPath id="clip0_601_3424">
<rect width="130" height="214" fill="white" transform="translate(29)"/>
</clipPath>
</defs>
</svg>
