<svg width="188" height="54" viewBox="0 0 188 54" fill="none" xmlns="http://www.w3.org/2000/svg">
<path d="M76.2314 26.126C76.2314 28.7256 75.5869 30.7236 74.2979 32.1201C73.0088 33.5166 71.1611 34.2148 68.7549 34.2148C66.3486 34.2148 64.501 33.5166 63.2119 32.1201C61.9229 30.7236 61.2783 28.7184 61.2783 26.1045C61.2783 23.4906 61.9229 21.4961 63.2119 20.1211C64.5081 18.7389 66.363 18.0479 68.7764 18.0479C71.1898 18.0479 73.0339 18.7425 74.3086 20.1318C75.5905 21.5212 76.2314 23.5192 76.2314 26.126ZM64.7695 26.126C64.7695 27.8805 65.1025 29.2018 65.7686 30.0898C66.4346 30.9779 67.43 31.4219 68.7549 31.4219C71.4118 31.4219 72.7402 29.6566 72.7402 26.126C72.7402 22.5882 71.4189 20.8193 68.7764 20.8193C67.4515 20.8193 66.4525 21.2669 65.7793 22.1621C65.1061 23.0501 64.7695 24.3714 64.7695 26.126ZM82.8164 25.6855H83.9121C84.9362 25.6855 85.7025 25.485 86.2109 25.084C86.7194 24.6758 86.9736 24.085 86.9736 23.3115C86.9736 22.5309 86.7588 21.9544 86.3291 21.582C85.9066 21.2096 85.2406 21.0234 84.3311 21.0234H82.8164V25.6855ZM90.3359 23.1934C90.3359 24.8835 89.806 26.1761 88.7461 27.0713C87.6934 27.9665 86.193 28.4141 84.2451 28.4141H82.8164V34H79.4863V18.2949H84.5029C86.4079 18.2949 87.8545 18.7067 88.8428 19.5303C89.8382 20.3467 90.3359 21.5677 90.3359 23.1934ZM102.281 29.2305H102.432C103.585 29.2305 104.487 28.9297 105.139 28.3281C105.798 27.7194 106.127 26.8887 106.127 25.8359C106.127 24.862 105.823 24.0814 105.214 23.4941C104.605 22.8997 103.774 22.6025 102.722 22.6025H102.281V29.2305ZM99.2842 34.2148V31.7979H99.0479C97.7158 31.7979 96.5485 31.5651 95.5459 31.0996C94.5433 30.627 93.752 29.9215 93.1719 28.9834C92.599 28.0452 92.3125 27.0033 92.3125 25.8574C92.3125 24.7474 92.5667 23.7484 93.0752 22.8604C93.5908 21.9652 94.332 21.2669 95.2988 20.7656C96.2656 20.2572 97.4043 20.0029 98.7148 20.0029H99.2842V18.0693H102.281V20.0029H102.851C104.154 20.0029 105.289 20.2572 106.256 20.7656C107.223 21.2669 107.964 21.9652 108.479 22.8604C108.995 23.7484 109.253 24.7474 109.253 25.8574C109.253 27.0033 108.963 28.0452 108.383 28.9834C107.81 29.9215 107.022 30.627 106.02 31.0996C105.017 31.5651 103.85 31.7979 102.518 31.7979H102.281V34.2148H99.2842ZM99.2842 22.6025H98.8438C97.791 22.6025 96.9603 22.8962 96.3516 23.4834C95.7428 24.0706 95.4385 24.8548 95.4385 25.8359C95.4385 26.8672 95.7607 27.6908 96.4053 28.3066C97.0498 28.9225 97.9593 29.2305 99.1338 29.2305H99.2842V22.6025ZM121.628 34L120.489 30.2617H114.764L113.625 34H110.037L115.58 18.2305H119.651L125.216 34H121.628ZM119.694 27.4688C118.642 24.0814 118.047 22.1657 117.911 21.7217C117.782 21.2777 117.689 20.9268 117.632 20.6689C117.396 21.5856 116.719 23.8522 115.602 27.4688H119.694ZM133.874 20.8408C132.621 20.8408 131.65 21.3135 130.963 22.2588C130.275 23.1969 129.932 24.5075 129.932 26.1904C129.932 29.6924 131.246 31.4434 133.874 31.4434C134.977 31.4434 136.312 31.1676 137.881 30.6162V33.4092C136.592 33.9463 135.152 34.2148 133.562 34.2148C131.278 34.2148 129.531 33.5238 128.32 32.1416C127.11 30.7523 126.505 28.7614 126.505 26.1689C126.505 24.5361 126.802 23.1074 127.396 21.8828C127.991 20.651 128.843 19.7093 129.953 19.0576C131.07 18.3988 132.377 18.0693 133.874 18.0693C135.399 18.0693 136.932 18.4382 138.472 19.1758L137.397 21.8828C136.81 21.6035 136.219 21.36 135.625 21.1523C135.031 20.9447 134.447 20.8408 133.874 20.8408ZM154.037 34H150.256L144.562 26.04V34H141.232V18.2949H144.562V25.9004L150.191 18.2949H153.736L148.011 25.8359L154.037 34ZM170.054 26.126C170.054 28.7256 169.409 30.7236 168.12 32.1201C166.831 33.5166 164.983 34.2148 162.577 34.2148C160.171 34.2148 158.323 33.5166 157.034 32.1201C155.745 30.7236 155.101 28.7184 155.101 26.1045C155.101 23.4906 155.745 21.4961 157.034 20.1211C158.33 18.7389 160.185 18.0479 162.599 18.0479C165.012 18.0479 166.856 18.7425 168.131 20.1318C169.413 21.5212 170.054 23.5192 170.054 26.126ZM158.592 26.126C158.592 27.8805 158.925 29.2018 159.591 30.0898C160.257 30.9779 161.252 31.4219 162.577 31.4219C165.234 31.4219 166.562 29.6566 166.562 26.126C166.562 22.5882 165.241 20.8193 162.599 20.8193C161.274 20.8193 160.275 21.2669 159.602 22.1621C158.928 23.0501 158.592 24.3714 158.592 26.126ZM185.737 34H182.418V21.0664H176.639V34H173.309V18.2949H185.737V34Z" fill="black"/>
<path d="M42.1926 28.9587L39.9714 24.5936C40.283 24.234 40.5085 23.808 40.6305 23.348C40.7525 22.888 40.7679 22.4063 40.6755 21.9394C40.5831 21.4726 40.3854 21.033 40.0973 20.6542C39.8093 20.2754 39.4385 19.9674 39.0134 19.7536C38.5882 19.5398 38.1199 19.4259 37.644 19.4205C37.1682 19.4152 36.6974 19.5186 36.2675 19.7228C35.8377 19.927 35.4602 20.2266 35.1637 20.5989C34.8672 20.9711 34.6596 21.4061 34.5568 21.8708L28.1678 21.5243L23.7527 12.8481L26.6667 6.47723C26.7512 6.29251 26.7589 6.08178 26.688 5.89141C26.6172 5.70103 26.4736 5.54661 26.2889 5.4621C26.1041 5.37758 25.8934 5.36992 25.703 5.44077C25.5127 5.51163 25.3582 5.65521 25.2737 5.83993L22.4211 12.0799L15.4313 11.7093C15.346 11.2694 15.1671 10.8531 14.9069 10.4884C14.6467 10.1237 14.3111 9.81913 13.923 9.59533C13.5349 9.37154 13.1032 9.23372 12.6572 9.1912C12.2112 9.14869 11.7613 9.20247 11.3378 9.34891C10.9144 9.49534 10.5274 9.73102 10.2029 10.04C9.8785 10.349 9.6242 10.724 9.45726 11.1398C9.29032 11.5555 9.21464 12.0023 9.23532 12.4499C9.25601 12.8974 9.37259 13.3353 9.57716 13.7339C9.71144 13.9887 9.88068 14.2236 10.08 14.4316L7.63955 18.1948C7.18137 18.0322 6.69159 17.9786 6.2091 18.0384C5.72661 18.0982 5.26469 18.2696 4.86003 18.539C4.45536 18.8085 4.11909 19.1686 3.87791 19.5908C3.63674 20.0129 3.49729 20.4854 3.47066 20.9709C3.44402 21.4563 3.53092 21.9413 3.72446 22.3873C3.918 22.8333 4.21286 23.228 4.58561 23.5402C4.95836 23.8523 5.39875 24.0732 5.8718 24.1854C6.34486 24.2976 6.83755 24.298 7.31077 24.1865L9.35425 28.2021C8.98572 28.5187 8.69598 28.9167 8.50798 29.3647C8.31999 29.8127 8.23891 30.2982 8.27117 30.783C8.30343 31.2677 8.44815 31.7383 8.69385 32.1574C8.93955 32.5765 9.27948 32.9326 9.68671 33.1975C10.0939 33.4625 10.5573 33.6289 11.04 33.6837C11.5227 33.7384 12.0115 33.68 12.4678 33.513C12.924 33.3461 13.3351 33.0751 13.6684 32.7217C14.0017 32.3683 14.2482 31.9421 14.3882 31.4769L18.7672 31.7089C19.023 32.4251 19.533 33.0224 20.2003 33.3873C20.8676 33.7522 21.6457 33.8592 22.3867 33.6881L25.8764 40.5458L23.0388 47.3013C22.9601 47.4885 22.959 47.6993 23.0357 47.8874C23.1125 48.0754 23.2608 48.2252 23.448 48.3039C23.6352 48.3826 23.846 48.3837 24.0341 48.3069C24.2221 48.2302 24.3719 48.0819 24.4506 47.8946L27.2169 41.3094L34.1343 41.6731C34.2647 42.1149 34.491 42.5225 34.797 42.8669C35.1031 43.2112 35.4814 43.4837 35.9048 43.665C36.3283 43.8463 36.7866 43.932 37.247 43.9158C37.7074 43.8996 38.1586 43.782 38.5683 43.5714C38.978 43.3607 39.3362 43.0623 39.6173 42.6973C39.8984 42.3323 40.0954 41.9098 40.1945 41.4599C40.2935 41.01 40.292 40.5438 40.1901 40.0945C40.0882 39.6453 39.8884 39.224 39.6049 38.8609L42.0017 35.174C46.5979 35.6185 46.8089 28.8062 42.1926 28.9587ZM36.873 21.1199C37.252 20.9271 37.692 20.8927 38.0963 21.0243C38.5006 21.1559 38.8361 21.4427 39.029 21.8217C39.2218 22.2006 39.2562 22.6407 39.1246 23.045C38.993 23.4493 38.7062 23.7848 38.3272 23.9776C37.9483 24.1705 37.5082 24.2049 37.1039 24.0733C36.6996 23.9417 36.3641 23.6548 36.1713 23.2759C35.9784 22.8969 35.944 22.4569 36.0756 22.0526C36.2072 21.6483 36.494 21.3128 36.873 21.1199ZM11.6429 10.8838C12.0219 10.691 12.4619 10.6566 12.8663 10.7882C13.2706 10.9198 13.6061 11.2066 13.7989 11.5856C13.9917 11.9645 14.0261 12.4046 13.8945 12.8089C13.7629 13.2132 13.4761 13.5487 13.0972 13.7415C12.7182 13.9344 12.2782 13.9688 11.8738 13.8372C11.4695 13.7056 11.134 13.4187 10.9412 13.0398C10.7484 12.6608 10.7139 12.2208 10.8456 11.8165C10.9772 11.4121 11.264 11.0767 11.6429 10.8838ZM5.17146 21.8698C4.98958 21.4922 4.96281 21.0584 5.09688 20.6613C5.23095 20.2642 5.51521 19.9354 5.88875 19.7453C6.2623 19.5552 6.69544 19.5189 7.09538 19.6443C7.49533 19.7697 7.83028 20.0467 8.02849 20.416C8.21037 20.7936 8.23714 21.2274 8.10307 21.6245C7.969 22.0216 7.68474 22.3504 7.31119 22.5405C6.93765 22.7306 6.50451 22.7669 6.10456 22.6415C5.70462 22.5161 5.36967 22.2391 5.17146 21.8698ZM12.1234 31.9963C11.7458 32.1782 11.312 32.2049 10.9149 32.0709C10.5178 31.9368 10.189 31.6525 9.99886 31.279C9.80877 30.9054 9.77253 30.4723 9.89789 30.0724C10.0233 29.6724 10.3003 29.3375 10.6696 29.1393C11.0472 28.9574 11.481 28.9306 11.8781 29.0647C12.2752 29.1987 12.604 29.483 12.7941 29.8565C12.9842 30.2301 13.0205 30.6632 12.8951 31.0632C12.7697 31.4631 12.4927 31.7981 12.1234 31.9963ZM14.4548 29.9466C14.3731 29.5403 14.2112 29.1543 13.9786 28.8113C13.746 28.4684 13.4473 28.1752 13.1 27.9491C12.7527 27.723 12.3638 27.5684 11.956 27.4944C11.5482 27.4204 11.1298 27.4285 10.7252 27.5182L8.67061 23.4807C8.98029 23.2071 9.23247 22.8747 9.4125 22.5027C9.59253 22.1307 9.69682 21.7267 9.71929 21.314C9.74176 20.9014 9.68198 20.4884 9.54341 20.0991C9.40484 19.7098 9.19026 19.3519 8.91213 19.0462L11.3597 15.2734C11.7558 15.4055 12.1742 15.4575 12.5905 15.4264C13.0069 15.3954 13.413 15.2819 13.7851 15.0925C14.1572 14.9032 14.488 14.6417 14.7582 14.3234C15.0284 14.0051 15.2326 13.6362 15.359 13.2383L22.4248 13.6132L26.8034 22.2177L23.1323 27.8639C22.6921 27.6334 22.2031 27.5117 21.7062 27.5088C21.2092 27.5059 20.7189 27.6221 20.276 27.8475C19.8332 28.073 19.4507 28.4012 19.1606 28.8046C18.8706 29.2081 18.6813 29.6752 18.6087 30.1668L14.4548 29.9466ZM20.27 31.3685C20.0881 30.9909 20.0613 30.5571 20.1954 30.16C20.3295 29.7629 20.6137 29.4341 20.9873 29.244C21.3608 29.0539 21.794 29.0176 22.1939 29.143C22.5938 29.2684 22.9288 29.5454 23.127 29.9147C23.3089 30.2923 23.3357 30.7261 23.2016 31.1232C23.0675 31.5203 22.7833 31.8491 22.4097 32.0392C22.0362 32.2293 21.603 32.2656 21.2031 32.1402C20.8031 32.0148 20.4682 31.7378 20.27 31.3685ZM37.8608 42.2131C37.4818 42.4059 37.0418 42.4403 36.6375 42.3087C36.2332 42.1771 35.8977 41.8903 35.7048 41.5113C35.512 41.1324 35.4776 40.6923 35.6092 40.288C35.7408 39.8837 36.0276 39.5482 36.4066 39.3553C36.7855 39.1625 37.2256 39.1281 37.6299 39.2597C38.0342 39.3913 38.3697 39.6781 38.5625 40.0571C38.7554 40.436 38.7898 40.8761 38.6582 41.2804C38.5266 41.6847 38.2398 42.0202 37.8608 42.2131ZM35.7121 37.9906C35.2972 38.2037 34.9355 38.5073 34.6535 38.8788C34.3716 39.2504 34.1766 39.6805 34.0831 40.1374L27.2026 39.7755L23.7514 32.9936C24.2767 32.5362 24.6346 31.9167 24.7684 31.2332C24.9023 30.5496 24.8044 29.8409 24.4903 29.2192C24.4284 29.1085 24.3598 29.0017 24.2847 28.8994L28.0861 23.052L34.5882 23.4045C34.7078 23.8195 34.9121 24.2052 35.188 24.5374C35.464 24.8696 35.8057 25.1411 36.1917 25.3348C36.5777 25.5285 36.9996 25.6403 37.4308 25.663C37.8621 25.6857 38.2934 25.6189 38.6976 25.4669L40.7359 29.4723C40.0922 29.8934 39.6263 30.537 39.4272 31.28C39.2282 32.023 39.3099 32.8133 39.6567 33.4998C39.8744 33.9215 40.1862 34.2875 40.5679 34.5695L38.3848 37.9269C37.9625 37.7384 37.5035 37.6462 37.0412 37.6571C36.5788 37.668 36.1251 37.7824 35.7121 37.9906ZM43.177 33.5081C42.7981 33.7009 42.358 33.7353 41.9537 33.6037C41.5494 33.4721 41.2139 33.1853 41.0211 32.8064C40.8282 32.4274 40.7938 31.9874 40.9254 31.583C41.057 31.1787 41.3439 30.8432 41.7228 30.6504C42.1018 30.4576 42.5418 30.4232 42.9461 30.5548C43.3505 30.6864 43.6859 30.9732 43.8788 31.3521C44.0716 31.7311 44.106 32.1711 43.9744 32.5755C43.8428 32.9798 43.556 33.3153 43.177 33.5081Z" fill="url(#paint0_linear_826_3)" stroke="url(#paint1_linear_826_3)" stroke-width="0.3"/>
<path d="M37.0273 2C33.1825 2 30 5.12785 30 8.97266C30 12.8175 33.1825 16 37.0273 16C40.8721 16 44 12.8175 44 8.97266C44 5.12785 40.8721 2 37.0273 2ZM40.7188 9.79297H37.8477V12.7188C37.8477 13.171 37.4793 13.5391 37.0273 13.5391C36.5751 13.5391 36.207 13.171 36.207 12.7188V9.79297H33.2812C32.829 9.79297 32.4609 9.42492 32.4609 8.97266C32.4609 8.52039 32.829 8.15234 33.2812 8.15234H36.207V5.28125C36.207 4.82898 36.5751 4.46094 37.0273 4.46094C37.4793 4.46094 37.8477 4.82898 37.8477 5.28125V8.15234H40.7188C41.1707 8.15234 41.5391 8.52039 41.5391 8.97266C41.5391 9.42492 41.1707 9.79297 40.7188 9.79297Z" fill="#D53E99"/>
<defs>
<linearGradient id="paint0_linear_826_3" x1="14.8221" y1="7.5426" x2="38" y2="64" gradientUnits="userSpaceOnUse">
<stop stop-color="#3AAB7C"/>
<stop offset="1" stop-color="#2DBEC7"/>
</linearGradient>
<linearGradient id="paint1_linear_826_3" x1="14.8221" y1="7.5426" x2="38" y2="64" gradientUnits="userSpaceOnUse">
<stop stop-color="#3AAB7C"/>
<stop offset="1" stop-color="#2DBEC7"/>
</linearGradient>
</defs>
</svg>
