<?xml version="1.0" encoding="UTF-8"?>
<!DOCTYPE svg PUBLIC "-//W3C//DTD SVG 1.1//EN" "http://www.w3.org/Graphics/SVG/1.1/DTD/svg11.dtd">
<!-- Creator: CorelDRAW 2020 (64-Bit) -->
<svg xmlns="http://www.w3.org/2000/svg" xml:space="preserve" width="40.5046mm" height="40.4747mm" version="1.1" style="shape-rendering:geometricPrecision; text-rendering:geometricPrecision; image-rendering:optimizeQuality; fill-rule:evenodd; clip-rule:evenodd"
viewBox="0 0 100.7 100.63"
 xmlns:xlink="http://www.w3.org/1999/xlink"
 xmlns:xodm="http://www.corel.com/coreldraw/odm/2003">
 <defs>
  <style type="text/css">
   <![CDATA[
    .fil0 {fill:#a5a7a9;}
   ]]>
  </style>
 </defs>
 <g id="Layer_x0020_1">
  <metadata id="CorelCorpID_0Corel-Layer"/>
  <path class="fil0" d="M27.96 5.26c-27.19,13.89 -36.89,49.5 -18.54,74.24 1.86,2.5 3.7,4.82 5.67,6.72 19.93,19.16 50.37,19.19 70.43,0.2 1.15,-1.09 1.85,-1.99 3.03,-3.25 0.88,-0.95 1.9,-2.34 2.67,-3.43 1.67,-2.34 3.32,-4.88 4.62,-7.77 10.17,-22.65 4.05,-46.86 -15.1,-61.81 -14.73,-11.5 -36.17,-13.38 -52.78,-4.89zm7.49 48.17c2.13,0.25 5.6,0.06 7.87,0.06 7.65,-0.01 15,-1 19.46,4.5 2.81,3.46 1.98,8.72 2.28,13.75 0.13,2.27 0.4,4.58 1.33,6.43 0.52,1.03 0.96,2.59 2.24,2.62 1.15,0.03 3.89,0.33 3.87,-0.9 0.09,-1.27 -0.04,-0.98 -0.65,-1.67 -4.46,-5.03 0.92,-16.37 -5.5,-23.22 -2.61,-2.79 -5.15,-2.78 -6.64,-3.69 1.97,-1.24 5.02,-1.52 8.03,-6.28 3.76,-5.95 2.73,-15.54 -4.12,-20.34 -2.03,-1.42 -8.12,-3.56 -11.2,-3.08 -1.33,0.15 -4.03,-0.04 -5.56,-0.04l-11.59 0c-3,0 -4.59,-0.42 -4.59,2.65 -0.01,18.53 -0.01,37.06 -0.02,55.6 0,1.42 4.45,1.57 4.43,-0.01l0.01 -24.98c-0,-1.74 0.08,-1.25 0.34,-1.41zm16.11 -4.14c3.92,0.3 9.29,-1.59 11.53,-4.98 2.43,-3.69 2.75,-9.2 0.32,-13.3 -1.97,-3.33 -6,-5.16 -11.23,-5.43 -5.44,-0.29 -11.24,0.07 -16.74,-0.06l-0.01 23.79 16.13 -0.03zm-28.91 -35.39l-3.13 2.58c-3.48,3.62 -4.87,4.67 -7.87,9.43 -1.41,2.24 -2.76,4.86 -3.83,7.58 -4.78,12.22 -4.22,26 1.78,37.56 1.39,2.68 3.67,6.38 5.61,8.56l3.56 3.72c0.29,0.3 0.44,0.54 0.74,0.83l3.15 2.56c17.08,12.54 38.53,12.55 55.5,-0 3.08,-2.28 6.37,-5.57 8.67,-8.64 0.88,-1.17 1.56,-2.17 2.34,-3.36 8.65,-13.25 9.24,-31.13 2.04,-45.13 -2.64,-5.13 -4.72,-7.88 -8.45,-11.61 -0.28,-0.28 -0.44,-0.39 -0.71,-0.67 -1.51,-1.57 -1.99,-1.95 -3.88,-3.39 -16.68,-12.64 -38.84,-12.39 -55.51,-0z"/>
 </g>
</svg>
