<?xml version="1.0" encoding="UTF-8"?>
<!DOCTYPE svg PUBLIC "-//W3C//DTD SVG 1.1//EN" "http://www.w3.org/Graphics/SVG/1.1/DTD/svg11.dtd">
<!-- Creator: CorelDRAW 2020 (64-Bit) -->
<svg xmlns="http://www.w3.org/2000/svg" xml:space="preserve" width="42.6167mm" height="42.5196mm" version="1.1" style="shape-rendering:geometricPrecision; text-rendering:geometricPrecision; image-rendering:optimizeQuality; fill-rule:evenodd; clip-rule:evenodd"
viewBox="0 0 104.55 104.31"
 xmlns:xlink="http://www.w3.org/1999/xlink"
 xmlns:xodm="http://www.corel.com/coreldraw/odm/2003">
 <defs>
  <style type="text/css">
   <![CDATA[
    .fil0 {fill:#a5a7a9}
   ]]>
  </style>
 </defs>
 <g id="Layer_x0020_1">
  <metadata id="CorelCorpID_0Corel-Layer"/>
  <path class="fil0" d="M21.57 60.49c0.64,2.94 1.26,0.77 -1.13,5.34 -0.88,1.69 -2.24,3.43 -2.39,5.55 -3.1,1.22 -4.7,1.49 -7.57,3.86 -6.23,5.15 -7.5,12.87 -8.08,20.77 -0.14,1.94 -0.44,3.34 0.76,4.65 1.24,1.37 2.21,1.23 4.41,1.1 1.77,-0.11 3.5,-0.3 5.23,-0.55 3.24,-0.48 6.42,-1.11 9.23,-2.34 4.73,-2.08 8.92,-6.64 10.54,-12.48 2.46,-0.04 5.9,-2.21 8.38,-3.57 0.6,-0.33 0.8,-0.62 1.44,-0.38 0.23,0.09 1.26,0.44 1.44,0.54 0.27,4.39 -0.02,12.26 0.02,17.36 0.03,3.45 2.84,4.49 4.78,3.74 0.87,-0.33 5.37,-4.25 6.4,-5.18 1.76,-1.6 2.94,-2.18 4,-4.82 0.46,-1.16 0.87,-3.23 1.2,-4.58l3.48 -14c0.32,-1.3 2.01,-8.67 2.39,-9.19l12.49 -10.78c0.55,-0.43 0.98,-0.88 1.54,-1.35 0.54,-0.45 1.03,-0.84 1.56,-1.34l3.18 -2.73c3.49,-2.7 8.51,-9.15 10.62,-12.66 5.87,-9.81 6.7,-15.75 8.3,-26.55 0.25,-1.67 0.56,-3.42 0.73,-5.06 0.21,-2.03 -0.56,-3.32 -1.56,-4.33 -2.44,-2.46 -5.81,-1.28 -9.42,-0.75 -3.39,0.49 -6.82,0.89 -10.08,1.64 -9.69,2.23 -16.16,5.92 -23.26,11.59l-3.04 2.75c-0.92,0.88 -2,2.03 -2.84,3.07l-4.02 4.66c-0.49,0.55 -0.92,0.98 -1.35,1.54l-4.02 4.67c-1.44,1.8 -3.84,4.35 -5.41,6.29 -0.55,0.68 -0.91,1.2 -1.52,1.37 -3.07,0.85 -6.29,1.57 -9.38,2.33l-13.9 3.46c-3.83,0.91 -5.42,0.97 -8.04,3.67l-2.64 3.15c-0.48,0.55 -0.91,1.01 -1.34,1.55 -1.4,1.79 -3.56,3.27 -2.35,5.92 0.62,1.37 1.82,2.05 3.76,2.05 5.26,0.02 12.73,-0.21 17.45,0.02zm23.35 -4.73c-0.75,0.26 -1.3,0.66 -1.25,1.74 0.04,0.91 0.81,1.4 1.24,1.82 0.54,0.52 0.98,0.98 1.5,1.51 1.78,1.8 3.31,0.26 3.24,-1.06 -0.05,-0.98 -1.81,-2.39 -2.74,-3.34 -0.49,-0.5 -0.99,-1.02 -2,-0.67zm9.98 -10.17c-0.69,0.28 -1.23,0.75 -1.14,1.76 0.07,0.88 0.81,1.36 1.23,1.78 1.35,1.32 2.21,2.77 3.68,2.18 0.65,-0.26 1.12,-0.94 1.06,-1.78 -0.07,-0.94 -1.78,-2.28 -2.74,-3.29 -0.48,-0.5 -1.05,-1.09 -2.09,-0.66zm-14.93 14.89c-0.69,0.28 -1.24,0.68 -1.17,1.75 0.07,0.99 1.73,2.32 2.65,3.27 1.8,1.84 3.45,0.35 3.31,-1.12 -0.09,-0.93 -1.84,-2.43 -2.69,-3.28 -0.46,-0.46 -1.15,-1.01 -2.11,-0.62zm9.66 -9.82c-0.7,0.26 -1.21,0.84 -1.11,1.84 0.1,0.94 1.83,2.41 2.7,3.27 1.7,1.69 3.35,0.33 3.27,-1.12 -0.06,-0.99 -1.74,-2.36 -2.65,-3.28 -0.47,-0.48 -1.16,-1.1 -2.21,-0.71zm39.39 -24.73c-1.14,0.3 -1.81,1.64 -1.01,2.7l4.39 4.42c0.24,0.25 0.57,0.66 1,1.01 -0.33,0.58 -0.67,1.17 -1.04,1.77 -4.73,7.77 -9.36,11.18 -15.85,16.86l-7.59 6.5c-1.73,1.46 -3.26,2.85 -4.99,4.32 -0.47,0.4 -0.86,0.7 -1.3,1.09l-3.72 3.2c-0.85,0.75 -1.63,1.47 -2.5,2.16 -0.89,0.7 -1.59,1.44 -2.48,2.17l-7.58 6.51c-1.12,0.97 -1.98,1.28 -3.16,0.11l-16.36 -16.35c-1.89,-1.89 -2.5,-2.42 -0.88,-4.28l22.63 -26.31c1.41,-1.81 9.56,-11.12 10.88,-12.39l2.41 -2.25c0.36,-0.35 0.87,-0.75 1.3,-1.09 1.51,-1.22 5.32,-4.02 6.88,-4.69 0.53,0.31 1.85,1.74 2.37,2.28l4.66 4.65c0.55,0.55 1.5,1.96 2.94,1.26 1.22,-0.6 1.17,-2.07 0.3,-3 -1.06,-1.13 -6.55,-6.42 -6.89,-6.97 1.4,-0.89 4.91,-2.14 6.75,-2.72 5.23,-1.64 10.28,-2.17 15.66,-2.95 4.12,-0.6 5.59,-1.23 5,2.98 -1.34,9.57 -2.08,16.21 -5.73,23.87l-3.34 -3.39c-0.57,-0.56 -1.42,-1.82 -2.73,-1.48zm-19.35 -2.19c-5.58,0.49 -10.23,5.29 -9.69,11.52 0.48,5.48 5.47,10.22 11.61,9.57 5.51,-0.58 10.06,-5.36 9.49,-11.55 -0.5,-5.44 -5.34,-10.08 -11.41,-9.55zm-0.11 3.53c-3.56,0.54 -6.67,3.79 -6.04,8.02 0.52,3.52 3.83,6.63 7.99,6.02 3.58,-0.52 6.61,-3.76 6.06,-8.01 -0.46,-3.55 -3.89,-6.65 -8.01,-6.03zm-22.17 54.92l-0.03 18.53 6 -5c2.88,-2.47 2.49,-3.17 3.56,-7.5 0.38,-1.52 4.23,-16.64 4.36,-17.73l-10.37 8.82c-0.54,0.51 -1.14,0.94 -1.71,1.44 -0.54,0.47 -1.17,1.14 -1.82,1.44zm-41.62 16.12c2.97,0.3 12.42,-1.32 15.4,-2.94 2.18,-1.19 3.75,-2.51 5.04,-4.14 1.01,-1.28 2.79,-4.14 3.06,-6.25 -1.27,-1.27 -9.69,-9.53 -10.04,-10.21 -1.9,0.14 -5.08,2.07 -6.25,2.98 -1.6,1.25 -3.08,2.89 -4.22,5.08 -1.95,3.74 -2.78,10.69 -3,15.48zm33.38 -18.62c-0.51,-0.67 -1.14,-1.2 -1.7,-1.76 -1.32,-1.33 -12.08,-12.31 -12.71,-12.58 -0.57,0.72 -1.34,2.39 -1.85,3.3 -0.5,0.9 -1.76,2.56 -1.13,3.7 0.3,0.55 10.11,10.22 10.31,10.33 1.15,0.59 2.81,-0.65 3.73,-1.12 0.61,-0.31 3.12,-1.55 3.36,-1.87zm-35.56 -22.75l18.76 0.01 3.02 -3.55c1.75,-1.9 4.24,-5.1 6.03,-7.06l2.95 -3.44c-0.66,-0.01 -19.48,4.74 -22.3,5.5 -2.21,0.59 -3.1,2.18 -4.55,3.87 -0.58,0.68 -3.69,4.23 -3.91,4.68z"/>
 </g>
</svg>
