<?xml version="1.0" encoding="UTF-8"?>
<!DOCTYPE svg PUBLIC "-//W3C//DTD SVG 1.1//EN" "http://www.w3.org/Graphics/SVG/1.1/DTD/svg11.dtd">
<!-- Creator: CorelDRAW 2020 (64-Bit) -->
<svg xmlns="http://www.w3.org/2000/svg" xml:space="preserve" width="30.9737mm" height="42.3123mm" version="1.1" style="shape-rendering:geometricPrecision; text-rendering:geometricPrecision; image-rendering:optimizeQuality; fill-rule:evenodd; clip-rule:evenodd"
viewBox="0 0 63.07 86.15"
 xmlns:xlink="http://www.w3.org/1999/xlink"
 xmlns:xodm="http://www.corel.com/coreldraw/odm/2003">
 <defs>
  <style type="text/css">
   <![CDATA[
    .fil0 {fill:#a5a7a9}
   ]]>
  </style>
 </defs>
 <g id="Layer_x0020_1">
  <metadata id="CorelCorpID_0Corel-Layer"/>
  <path class="fil0" d="M0.04 9.42l-0.04 69.81c0,0.48 0.94,1.19 1.03,1.22 0.35,0.12 32.71,0.04 33.37,0.04 0.29,2.03 -0.7,6.09 1.69,5.62 0.41,-0.08 1.26,-0.75 1.53,-0.95 0.5,-0.37 5.11,-4.25 5.68,-4.1l2.65 2.12c0.73,0.57 3.3,2.73 4.18,2.95 0.71,0.18 1.21,-0.39 1.34,-0.92 0.3,-1.26 -0.13,-3.54 0.14,-4.69 3.45,-0.1 7,0.05 10.42,-0.09 0.81,-0.03 0.85,-0.8 0.89,-1.6 0.23,-4.44 0.12,-20.53 0.12,-25.08l0 -38.33c0,-0.44 -0.61,-0.88 -0.86,-1.12l-10.81 -10.81c-0.68,-0.68 -1.3,-1.3 -1.98,-1.98 -1.62,-1.62 -1.13,-1.43 -2.48,-1.43l-34.38 -0.05c-3.57,0 -7.27,-0.06 -10.82,0.1 -1.91,0.08 -1.57,1.02 -1.61,3.84 -0.03,1.82 -0.05,3.65 -0.05,5.47zm37.3 72.37c0.36,-0.17 2.24,-1.74 2.66,-2.08 3.11,-2.54 3,-2.54 5.99,-0.09 0.35,0.29 2.42,2.04 2.72,2.04 0.17,-0.89 0.17,-7.67 0.1,-8.81 -1.95,-0.2 -1.74,0.06 -2.86,0.86 -1.8,1.28 -3.87,1.25 -5.68,0.02 -1.14,-0.77 -0.94,-1.11 -2.92,-0.89l-0.01 8.94zm2.83 -30.94c-1.32,-0.01 -3.27,-0.48 -4.13,0.37 -0.84,0.84 -0.61,2.96 -1.25,3.41 -0.95,0.67 -2.18,0.98 -2.62,2.04 -0.56,1.36 0.83,2.69 0.85,3.65 0.03,1.21 -2.35,3.18 0.17,4.82 0.47,0.31 1.06,0.57 1.46,0.91 0.92,0.78 0.47,2.45 1.31,3.35 0.84,0.91 2.72,0.48 4.08,0.45 0.3,0.11 1.79,2 2.99,2.01 1.26,0.01 2.35,-1.51 3.08,-2.01 0.85,-0.26 3.64,1.22 4.53,-1.58 0.18,-0.56 0.18,-1.17 0.42,-1.69 0.75,-1.6 4.28,-1.3 2.47,-4.99 -0.79,-1.61 -0.24,-1.75 0.3,-3.14 0.57,-1.49 -0.01,-2.34 -0.92,-2.91 -1.05,-0.66 -1.92,-0.74 -2.05,-2.17 -0.16,-1.63 -0.96,-2.03 -1.47,-2.74 -0.78,0.01 -2.57,0.28 -3.18,0.19 -0.85,-0.13 -2.2,-2.99 -4.26,-1.61 -0.57,0.38 -1.41,1.13 -1.78,1.64zm-27.41 -13.85l37.12 0c0.72,0 1.3,0.59 1.3,1.3l0 0c0,0.72 -0.59,1.3 -1.3,1.3l-37.12 0c-0.72,0 -1.3,-0.59 -1.3,-1.3l0 0c0,-0.72 0.59,-1.3 1.3,-1.3zm0 -8.11l37.12 0c0.72,0 1.3,0.59 1.3,1.3l0 0c0,0.72 -0.59,1.3 -1.3,1.3l-37.12 0c-0.72,0 -1.3,-0.59 -1.3,-1.3l0 -0c0,-0.72 0.59,-1.3 1.3,-1.3zm11.1 -8.2l14.92 0c0.72,0 1.3,0.59 1.3,1.3l0 0c0,0.72 -0.59,1.3 -1.3,1.3l-14.92 0c-0.72,0 -1.3,-0.59 -1.3,-1.3l0 -0c0,-0.72 0.59,-1.3 1.3,-1.3zm10.61 57c-0.16,-1.38 0.29,-5.31 -0.33,-6.18 -0.54,-0.76 -0.81,-0.96 -1.2,-2.05 -0.48,-1.32 -0.15,-1.25 -1.27,-1.98 -1.14,-0.74 -2.35,-2.06 -2.35,-4.17 0,-1.23 0.32,-1.68 0.59,-2.69 0.22,-0.83 -2.13,-4.41 1.34,-7.09 0.88,-0.68 1.15,-0.44 1.52,-1.73 0.44,-1.51 1.4,-2.99 2.92,-3.59 0.77,-0.3 2.04,-0.2 2.95,-0.32 1.4,-0.18 1.97,-1.96 4.68,-1.8 0.93,0.05 1.73,0.4 2.37,0.77 0.75,0.43 1.02,1.02 2.19,1.06 4.02,0.13 4.59,1.33 5.6,4.16 0.6,1.67 3.99,1.92 3.27,6.28 -0.14,0.87 -0.74,1.75 -0.47,2.43 0.36,0.92 0.63,1.55 0.58,2.69 -0.09,2.06 -1.29,3.28 -2.47,4.04 -1.56,1.01 -0.55,2.07 -2.47,4.04 -0.41,0.43 -0.36,0.46 -0.35,1.23l0.08 4.85c1.2,0 7.98,0.13 8.57,-0.06l0.08 -56.66c0,-0.87 0.11,-3.13 -0.04,-3.84 -2.37,0 -4.74,0 -7.11,0 -1.33,-0 -5.99,0.21 -6.8,-0.36 -0.5,-0.35 -0.36,-0.61 -0.36,-1.34l-0.09 -12.45c-0.61,-0.19 -19.1,-0.06 -21.41,-0.06 -3.58,0 -7.15,0 -10.73,0 -3.53,0 -7.3,-0.12 -10.8,0.01l0 74.77 31.51 0.03zm14.35 -63.33l9.46 0c-0.21,-0.42 -3.98,-4.07 -4.64,-4.72 -0.66,-0.66 -4.31,-4.41 -4.77,-4.63l-0.05 9.35z"/>
 </g>
</svg>
