<svg width="28" height="28" viewBox="0 0 28 28" fill="none" xmlns="http://www.w3.org/2000/svg">
<path d="M25.1999 12.4832L23.5666 10.6166C23.2166 10.2666 22.9833 9.56657 22.9833 9.0999V7.23323C22.9833 5.9499 21.9333 5.01657 20.7666 5.01657H18.7833C18.3166 5.01657 17.6166 4.78324 17.2666 4.43324L15.3999 2.7999C14.5833 2.0999 13.2999 2.0999 12.4833 2.7999L10.7333 4.43324C10.3833 4.78324 9.68327 5.01657 9.2166 5.01657H7.23327C5.94993 5.01657 5.0166 6.06657 5.0166 7.23323V9.21657C5.0166 9.68324 4.78327 10.3832 4.43327 10.7332L2.9166 12.5999C2.2166 13.4166 2.2166 14.6999 2.9166 15.5166L4.43327 17.3832C4.78327 17.7332 5.0166 18.4332 5.0166 18.8999V20.8832C5.0166 22.1666 6.0666 23.0999 7.23327 23.0999H9.2166C9.68327 23.0999 10.3833 23.3332 10.7333 23.6832L12.5999 25.3166C13.4166 26.0166 14.6999 26.0166 15.5166 25.3166L17.3833 23.6832C17.7333 23.3332 18.4333 23.0999 18.8999 23.0999H20.8833C22.1666 23.0999 23.0999 22.0499 23.0999 20.8832V18.8999C23.0999 18.4332 23.3333 17.7332 23.6833 17.3832L25.3166 15.5166C25.8999 14.6999 25.8999 13.2999 25.1999 12.4832ZM18.8999 11.7832L13.2999 17.3832C13.1833 17.4999 12.9499 17.6166 12.7166 17.6166C12.4833 17.6166 12.2499 17.4999 12.1333 17.3832L9.33327 14.5832C8.98327 14.2332 8.98327 13.6499 9.33327 13.2999C9.68327 12.9499 10.2666 12.9499 10.6166 13.2999L12.8333 15.5166L17.6166 10.4999C17.9666 10.1499 18.5499 10.1499 18.8999 10.4999C19.2499 10.8499 19.2499 11.4332 18.8999 11.7832Z" fill="#3AAB7C"/>
</svg>
